{"glyphs":{"0":{"ha":668,"x_min":36,"x_max":629,"o":"m 629 617 l 629 296 q 584 138 629 206 q 470 33 539 69 q 320 -1 401 -3 q 165 51 239 1 q 60 179 94 100 q 40 253 44 217 q 36 331 36 290 l 36 651 q 81 808 36 740 q 194 913 125 876 q 344 948 263 950 q 500 896 426 946 q 561 840 536 871 q 604 768 586 808 q 625 694 621 731 q 629 617 629 657 m 569 571 q 569 640 569 607 q 562 705 568 674 q 540 766 556 736 q 494 825 525 796 q 368 886 438 878 q 238 868 299 894 q 137 785 178 842 q 96 651 96 729 l 96 376 q 97 307 96 340 q 103 242 97 274 q 125 181 110 211 q 171 122 140 151 q 297 60 228 69 q 427 78 367 51 q 528 161 488 104 q 569 296 569 218 l 569 571 m 489 788 q 525 729 514 758 q 540 670 536 700 q 542 610 543 640 q 540 547 540 579 l 540 296 q 522 209 540 247 q 474 144 504 171 q 405 102 443 117 q 326 88 367 88 q 246 106 285 89 q 175 160 207 124 q 140 218 150 189 q 126 277 129 247 q 124 338 122 307 q 125 400 125 368 l 125 651 q 143 738 125 699 q 192 803 161 776 q 260 845 222 831 q 339 859 299 860 q 418 841 379 858 q 489 788 457 824 m 481 501 q 481 542 481 514 q 481 603 482 571 q 478 663 481 635 q 471 706 476 692 q 428 766 456 743 q 370 796 401 789 q 306 797 339 803 q 246 772 272 790 q 202 722 219 753 q 185 651 185 692 l 185 446 q 184 405 185 433 q 184 344 183 376 q 187 284 185 313 q 194 242 189 256 q 237 181 210 203 q 295 151 264 160 q 360 149 326 143 q 419 174 393 156 q 463 224 446 193 q 481 296 481 256 l 481 501 m 450 660 q 453 569 454 614 q 451 478 451 524 l 451 296 q 416 209 451 239 q 337 178 381 179 q 256 203 293 176 q 214 288 218 231 q 213 378 211 333 q 214 469 214 424 l 214 651 q 249 738 214 708 q 328 769 285 768 q 409 744 372 771 q 450 660 446 717 m 371 251 q 389 281 386 265 q 392 314 392 296 l 392 381 l 392 651 q 382 685 392 671 q 357 706 372 699 q 324 710 342 713 q 293 696 307 708 q 276 667 278 682 q 274 633 274 651 l 274 567 l 274 296 q 283 263 274 276 q 308 242 293 249 q 340 237 322 235 q 371 251 357 239 z "},"1":{"ha":450,"x_min":42,"x_max":397,"o":"m 397 947 l 397 0 l 161 0 l 161 711 l 42 711 l 42 947 l 161 947 l 279 947 l 397 947 l 397 947 m 339 58 l 339 889 l 101 889 l 101 769 l 219 769 l 219 58 l 339 58 l 339 58 m 308 858 l 308 89 l 250 89 l 250 800 l 131 800 l 131 858 l 308 858 l 308 858 z "},"2":{"ha":668,"x_min":38,"x_max":633,"o":"m 38 286 l 38 308 q 95 473 42 400 q 236 576 149 546 q 329 593 282 593 q 373 608 354 593 q 393 649 392 622 q 376 694 394 678 q 335 710 358 710 q 294 697 313 711 q 275 653 275 682 l 38 653 q 68 786 38 728 q 147 883 99 844 q 257 938 196 922 q 379 946 318 954 q 497 902 440 938 q 590 801 553 867 q 624 710 615 758 q 628 615 633 663 q 601 524 622 568 q 544 444 579 481 q 468 386 508 407 q 375 358 428 365 q 351 357 363 357 q 328 356 339 357 q 306 349 317 354 q 286 332 296 344 q 278 311 281 324 q 274 285 275 299 q 274 259 274 272 q 275 238 275 246 l 333 238 l 356 238 l 631 238 l 631 0 l 38 0 l 38 286 m 97 307 l 97 60 l 571 60 l 571 178 l 356 178 l 333 178 l 215 178 q 215 213 215 190 q 215 263 214 236 q 218 312 215 289 q 226 347 221 335 q 289 407 246 389 q 330 415 310 415 q 369 418 350 415 q 450 447 413 425 q 515 499 488 468 q 556 571 542 531 q 571 656 571 611 q 553 740 569 700 q 509 811 538 781 q 443 862 481 842 q 361 888 406 882 q 276 882 317 893 q 200 847 235 871 q 140 789 165 824 q 104 711 115 754 l 231 711 q 269 752 246 738 q 319 770 293 767 q 372 765 346 774 q 419 735 399 756 q 447 687 440 714 q 450 633 454 660 q 431 584 446 607 q 389 547 415 561 q 335 534 363 533 q 282 528 308 535 q 183 481 229 517 q 122 403 144 449 q 97 307 100 358 m 542 149 l 542 89 l 126 89 l 126 306 q 159 408 129 361 q 238 481 189 454 q 294 499 265 496 q 351 506 322 503 q 450 561 413 511 q 483 640 481 600 q 469 712 486 679 q 422 768 453 744 q 356 799 392 792 q 282 794 319 807 q 215 742 244 781 l 146 742 q 194 806 164 779 q 260 846 224 832 q 335 860 296 860 q 414 843 375 860 q 481 798 453 826 q 524 734 508 769 q 540 659 539 699 q 528 581 542 619 q 489 512 513 539 q 425 465 465 485 q 347 446 386 447 q 309 442 328 443 q 271 432 290 440 q 212 381 235 414 q 186 307 189 347 q 185 228 183 267 q 186 149 186 189 l 333 149 l 356 149 l 542 149 z "},"3":{"ha":668,"x_min":40,"x_max":639,"o":"m 431 936 q 551 860 503 913 q 619 744 599 808 q 629 608 639 679 q 574 478 619 538 q 629 347 619 417 q 619 212 639 276 q 551 95 599 147 q 431 18 503 43 q 288 7 358 -6 q 163 59 218 19 q 74 161 108 99 q 40 300 40 224 l 278 300 q 303 251 278 268 q 357 244 328 233 q 381 260 371 250 q 394 285 390 271 q 394 313 397 299 q 381 339 390 326 q 358 353 372 349 q 328 360 343 358 q 297 360 313 361 q 272 360 282 360 l 158 360 l 158 596 l 335 596 q 369 606 354 596 q 390 631 383 615 q 395 665 397 647 q 379 697 393 682 q 348 714 365 711 q 315 710 331 717 q 288 690 299 704 q 278 656 278 675 l 40 656 q 74 793 40 731 q 163 895 108 856 q 288 947 218 935 q 431 936 358 960 m 500 478 q 556 570 535 525 q 572 679 578 615 q 537 782 567 735 q 458 858 507 829 q 351 892 407 889 q 247 874 296 894 q 159 813 197 854 q 107 715 121 772 l 233 715 q 278 759 250 744 q 337 774 307 774 q 395 758 367 774 q 440 714 424 743 q 455 652 457 685 q 438 594 453 619 q 395 551 422 568 q 333 538 368 535 l 218 538 l 218 418 q 248 418 226 418 q 294 418 269 418 q 341 417 319 418 q 371 414 363 415 q 433 369 410 401 q 454 297 456 338 q 426 224 453 253 q 365 185 400 194 q 292 188 329 175 q 233 240 256 201 l 107 240 q 159 142 121 183 q 247 81 197 101 q 351 64 296 61 q 458 97 407 67 q 537 172 507 125 q 572 276 567 219 q 556 385 578 340 q 500 478 535 431 m 471 814 q 526 738 507 782 q 543 646 546 694 q 516 554 540 592 q 463 478 492 517 q 516 401 492 439 q 543 310 540 364 q 526 217 546 261 q 471 142 507 174 q 385 98 432 108 q 292 97 338 88 q 209 136 247 107 q 149 211 171 165 l 218 211 q 278 163 243 178 q 351 152 314 149 q 419 176 388 156 q 469 235 451 197 q 484 310 488 272 q 461 380 481 349 q 408 431 442 411 q 333 449 375 450 l 247 449 l 247 507 l 332 507 q 407 524 374 506 q 460 574 440 543 q 484 644 481 606 q 469 719 488 682 q 419 778 451 757 q 351 803 388 799 q 278 792 314 807 q 218 744 243 778 l 149 744 q 209 819 171 790 q 292 858 247 849 q 385 858 338 868 q 471 814 432 847 z "},"4":{"ha":1157,"x_min":36,"x_max":629,"o":"m 629 593 l 629 0 l 393 0 l 393 296 q 284 301 336 296 q 181 339 232 307 q 97 410 128 371 q 49 508 67 450 q 40 558 43 529 q 37 619 38 588 q 37 678 36 650 q 38 728 38 707 l 38 949 l 274 949 l 274 889 l 274 694 q 274 670 274 689 q 274 631 274 651 q 275 592 274 610 q 279 568 276 574 q 301 542 288 550 q 331 533 315 535 q 363 532 347 531 q 393 533 379 533 l 393 911 l 393 949 l 629 949 l 629 593 m 571 58 l 571 889 l 451 889 l 451 474 q 423 474 444 474 q 378 474 401 474 q 333 474 354 474 q 303 478 311 475 q 241 519 265 489 q 215 589 217 549 q 214 739 213 664 q 215 889 215 814 l 96 889 l 96 692 q 95 594 96 643 q 117 497 94 546 q 172 418 136 451 q 257 368 208 385 q 354 353 306 351 q 451 356 403 356 l 451 58 l 571 58 m 540 860 l 540 89 l 482 89 l 482 385 q 446 385 472 385 q 389 385 419 385 q 332 385 358 385 q 297 389 306 386 q 213 424 250 397 q 151 493 175 451 q 126 583 126 538 q 126 674 126 628 l 126 860 l 185 860 l 185 697 q 185 662 185 683 q 185 617 185 640 q 188 572 186 593 q 196 536 190 550 q 245 473 211 497 q 319 444 279 449 q 401 443 360 442 q 482 444 442 444 l 482 860 l 540 860 z "},"5":{"ha":668,"x_min":39,"x_max":638,"o":"m 631 951 l 631 714 l 357 714 l 335 714 l 275 714 l 275 596 q 366 593 322 596 q 454 571 410 590 q 531 523 499 551 q 589 453 564 494 q 631 278 638 371 q 564 111 624 185 q 464 31 519 57 q 350 2 408 4 q 235 20 292 0 q 135 79 179 40 q 65 174 92 118 q 39 299 39 229 l 275 299 q 286 264 275 278 q 313 244 297 250 q 347 241 329 238 q 379 260 365 244 q 394 294 393 276 q 388 326 396 311 q 363 349 379 340 q 326 358 347 358 l 39 358 l 39 951 l 631 951 m 572 774 l 572 892 l 97 892 l 97 418 l 281 418 q 328 418 306 418 q 371 413 350 418 q 409 394 392 408 q 440 354 426 381 q 449 260 467 303 q 392 196 431 217 q 307 183 353 175 q 232 240 261 190 l 106 240 q 151 147 119 185 q 226 88 183 108 q 316 63 268 67 q 409 74 364 60 q 492 120 454 88 q 553 204 531 153 q 567 349 583 275 q 494 475 551 422 q 428 517 461 504 q 360 535 394 531 q 290 538 325 539 q 217 536 254 536 l 217 774 l 572 774 m 542 863 l 542 803 l 186 803 l 186 507 l 315 507 q 380 501 350 507 q 440 478 410 496 q 525 384 499 444 q 538 257 551 324 q 472 142 522 183 q 359 93 421 100 q 238 115 297 86 q 147 210 179 143 l 217 210 q 303 153 253 161 q 398 165 354 144 q 467 231 442 186 q 479 333 493 275 q 424 417 465 386 q 331 447 383 447 l 128 447 l 128 863 l 542 863 z "},"6":{"ha":668,"x_min":40,"x_max":636,"o":"m 42 293 q 41 339 40 317 q 42 385 42 361 l 42 558 q 42 644 42 603 q 51 726 43 686 q 79 802 60 765 q 138 874 99 839 q 294 949 208 939 q 456 927 381 960 q 583 824 532 894 q 633 656 633 753 l 397 656 q 389 685 397 672 q 368 706 381 699 q 340 715 356 714 q 308 707 324 715 q 286 685 293 699 q 277 656 279 671 q 276 624 275 640 q 278 596 278 608 q 367 592 325 596 q 445 576 408 589 q 515 539 482 564 q 579 471 549 514 q 633 310 631 399 q 592 147 636 222 q 475 36 546 72 q 329 3 404 0 q 322 4 328 4 l 318 4 q 304 6 308 4 l 299 6 q 293 7 296 7 q 288 8 290 7 q 261 14 271 11 q 256 15 257 14 q 252 16 253 15 q 249 17 251 17 q 135 83 185 36 q 61 192 86 129 q 60 194 61 193 q 60 197 60 196 q 56 207 57 203 q 53 217 56 211 q 45 254 47 236 q 42 292 43 272 l 42 293 m 440 715 l 567 715 q 522 804 553 767 q 451 863 492 842 q 365 890 411 885 q 275 884 319 896 q 192 843 231 872 q 128 767 153 814 q 105 699 110 733 q 100 629 100 665 l 100 486 l 100 343 q 103 274 100 307 q 121 204 106 240 q 216 95 153 131 q 347 63 279 60 q 475 106 415 65 q 561 224 535 146 q 566 363 585 293 q 490 481 547 433 q 424 520 457 508 q 358 535 392 532 q 290 538 325 539 q 219 536 256 536 l 219 644 q 226 697 219 674 q 256 742 233 719 q 302 769 276 761 q 354 773 328 776 q 403 755 381 769 q 440 715 425 740 m 440 481 q 526 388 499 447 q 542 264 553 329 q 481 149 529 192 q 372 95 432 106 q 252 110 313 85 q 157 199 192 135 q 135 259 140 229 q 131 322 131 289 l 131 450 q 131 499 131 463 q 131 576 131 535 q 132 655 131 618 q 136 704 133 692 q 175 785 147 751 q 239 838 203 819 q 317 862 275 857 q 397 855 358 867 q 470 816 436 843 q 525 744 504 789 l 456 744 q 406 787 435 772 q 345 803 376 801 q 283 792 314 804 q 229 756 253 781 q 197 700 204 728 q 189 636 189 672 l 189 507 l 317 507 q 380 502 350 507 q 440 481 410 497 m 442 194 q 476 248 465 218 q 485 308 486 278 q 469 366 483 338 q 431 415 456 394 q 374 443 403 438 q 314 449 346 449 l 189 449 l 189 324 q 194 263 189 292 q 222 207 200 235 q 271 167 243 181 q 329 151 299 153 q 389 160 360 150 q 442 194 418 171 m 411 392 q 443 352 432 375 q 456 306 454 329 q 448 258 457 282 q 421 215 439 233 q 378 189 401 197 q 331 182 354 181 q 284 194 307 183 q 244 225 261 204 q 224 270 228 247 q 219 318 219 293 l 219 418 l 318 418 q 367 414 344 418 q 411 392 389 410 m 379 258 q 397 303 399 278 q 375 346 396 329 q 353 356 367 353 q 326 359 340 358 q 299 359 313 360 q 278 358 286 358 q 277 337 278 350 q 278 310 276 324 q 282 284 279 297 q 292 263 285 271 q 334 240 308 242 q 379 258 360 239 z "},"7":{"ha":668,"x_min":36,"x_max":629,"o":"m 629 949 l 629 711 l 444 0 l 199 0 l 385 711 l 36 711 l 36 949 l 629 949 l 629 949 m 569 719 l 569 889 l 96 889 l 96 771 l 461 771 l 276 60 l 399 60 l 569 719 l 569 719 m 540 860 l 540 724 l 375 89 l 314 89 l 500 800 l 126 800 l 126 860 l 540 860 l 540 860 z "},"8":{"ha":668,"x_min":32,"x_max":633,"o":"m 332 947 q 444 926 393 947 q 535 868 496 904 q 597 784 574 832 q 627 683 621 736 q 619 576 633 631 q 569 474 606 522 q 629 317 625 400 q 598 163 633 233 q 493 47 563 93 q 332 0 424 0 q 172 47 240 0 q 67 164 103 93 q 36 317 32 235 q 96 474 40 400 q 36 631 40 547 q 67 785 32 714 q 172 901 103 856 q 332 947 240 947 m 564 597 q 554 738 581 669 q 467 848 526 807 q 332 889 407 889 q 199 848 258 889 q 111 738 139 807 q 101 597 85 669 q 129 532 111 561 q 169 474 147 503 q 129 416 147 446 q 101 350 111 386 q 111 210 85 279 q 199 100 139 142 q 332 58 258 58 q 467 100 407 58 q 554 210 526 142 q 564 350 581 278 q 535 416 554 386 q 496 474 517 446 q 535 532 517 503 q 564 597 554 561 m 458 474 q 497 419 479 446 q 527 365 515 393 q 541 306 539 338 q 531 235 543 274 q 456 128 510 168 q 332 89 401 89 q 209 128 264 89 q 135 233 154 168 q 124 304 122 272 q 137 365 125 336 q 167 419 149 393 q 207 474 186 446 q 167 528 186 501 q 137 582 149 554 q 124 642 125 610 q 135 714 122 674 q 209 819 154 779 q 332 858 264 858 q 456 819 401 858 q 531 714 510 779 q 541 642 543 674 q 528 582 539 610 q 498 528 517 554 q 458 474 479 501 m 481 651 q 469 709 481 682 q 437 756 457 736 q 390 788 417 776 q 332 800 363 800 q 274 788 301 800 q 228 756 247 776 q 197 709 208 736 q 185 651 185 682 q 197 594 185 621 q 228 547 208 567 q 274 515 247 526 q 332 503 301 503 q 390 515 363 503 q 437 547 417 526 q 469 594 457 567 q 481 651 481 621 m 481 296 q 469 353 481 326 q 437 401 457 381 q 390 433 417 421 q 332 444 363 444 q 274 433 301 444 q 228 401 247 421 q 197 353 208 381 q 185 296 185 326 q 197 238 185 265 q 228 191 208 211 q 274 159 247 171 q 332 147 301 147 q 390 159 363 147 q 437 191 417 171 q 469 238 457 211 q 481 296 481 265 m 332 769 q 417 735 382 769 q 451 651 451 700 q 417 568 451 603 q 332 533 382 533 q 249 568 283 533 q 214 651 214 603 q 249 735 214 700 q 332 769 283 769 m 392 651 q 374 694 392 676 q 332 711 357 711 q 291 694 308 711 q 274 651 274 676 q 291 610 274 628 q 332 592 308 592 q 374 610 357 592 q 392 651 392 628 m 332 414 q 417 379 382 414 q 451 296 451 344 q 417 213 451 247 q 332 178 382 178 q 249 213 283 178 q 214 296 214 247 q 249 379 214 344 q 332 414 283 414 m 392 296 q 374 338 392 321 q 332 356 357 356 q 291 338 308 356 q 274 296 274 321 q 291 254 274 272 q 332 236 308 236 q 374 254 357 236 q 392 296 392 272 z "},"9":{"ha":1157,"x_min":36,"x_max":632,"o":"m 342 951 l 350 951 l 354 951 q 368 950 358 950 q 371 949 369 950 q 374 949 372 949 q 379 948 376 949 q 385 947 382 947 q 408 942 399 944 l 411 942 q 413 941 413 942 q 415 940 414 940 l 417 940 q 424 939 418 939 q 537 872 488 918 q 611 764 586 826 l 619 739 q 627 701 625 719 q 631 663 629 682 q 631 616 632 639 q 631 569 631 593 l 631 397 q 630 311 631 353 q 621 230 629 269 q 593 153 613 190 q 535 82 574 117 q 378 6 464 17 q 216 28 292 -4 q 90 132 140 61 q 39 300 39 203 l 275 300 q 283 269 275 283 q 304 249 292 256 q 332 240 317 242 q 363 247 347 239 q 385 269 378 256 q 394 299 392 283 q 395 331 396 315 q 394 358 394 346 q 306 362 347 358 q 227 378 264 365 q 157 417 190 392 q 93 485 124 442 q 39 644 42 557 q 81 808 36 732 q 197 919 126 883 q 342 951 267 954 m 572 326 l 572 468 l 572 611 q 569 681 572 647 q 551 750 567 715 q 456 860 519 825 q 325 892 393 894 q 197 849 257 889 q 111 732 138 808 q 106 592 88 661 q 182 474 125 522 q 247 434 214 446 q 314 419 281 422 q 382 417 347 415 q 453 418 417 418 l 453 311 q 446 258 453 282 q 417 214 439 235 q 370 187 396 194 q 318 183 344 179 q 269 201 292 186 q 232 240 246 215 l 106 240 q 150 150 119 188 q 221 91 181 113 q 307 64 261 69 q 397 70 353 58 q 481 111 442 82 q 544 188 519 140 q 567 256 563 222 q 572 326 572 290 m 542 506 q 542 456 542 493 q 542 378 542 419 q 540 299 542 336 q 536 250 539 263 q 497 169 525 203 q 433 117 469 136 q 356 93 397 97 q 275 101 314 89 q 202 140 236 113 q 147 211 168 167 l 217 211 q 267 169 238 183 q 327 152 296 154 q 389 162 358 150 q 443 199 419 174 q 476 255 468 226 q 483 318 483 283 l 483 447 l 356 447 q 292 453 322 447 q 232 475 263 458 q 147 566 174 507 q 131 692 119 625 q 192 807 143 764 q 301 860 240 850 q 421 844 361 869 q 517 756 481 819 q 537 696 532 726 q 542 633 542 665 l 542 506 m 483 507 l 483 632 q 478 692 483 664 q 450 749 472 721 q 401 788 429 774 q 342 803 372 801 q 283 794 313 804 q 231 760 253 783 q 197 706 207 736 q 188 647 186 676 q 203 589 189 617 q 242 540 217 561 q 298 513 269 518 q 358 507 326 507 l 483 507 m 453 636 l 453 536 l 354 536 q 305 540 328 536 q 260 563 282 544 q 228 602 239 579 q 217 649 218 625 q 224 696 215 672 q 251 739 232 719 q 294 766 269 757 q 342 774 318 775 q 388 761 365 772 q 426 729 410 750 q 449 685 444 707 q 453 636 453 663 m 394 596 q 395 617 394 604 q 394 644 396 631 q 390 671 393 658 q 381 692 388 683 q 338 715 364 713 q 293 697 313 717 q 275 651 274 678 q 297 610 276 625 q 319 600 306 603 q 346 596 332 597 q 373 595 360 594 q 394 596 386 596 z "},"\u0000":{"ha":0,"x_min":0,"x_max":0,"o":""},"\r":{"ha":410,"x_min":0,"x_max":0,"o":""}," ":{"ha":410,"x_min":0,"x_max":0,"o":""},"E":{"ha":668,"x_min":40,"x_max":632,"o":"m 632 236 l 632 0 l 276 0 l 218 0 l 40 0 l 40 947 l 218 947 l 276 947 l 632 947 l 632 710 l 276 710 l 276 592 l 632 592 l 632 354 l 276 354 l 276 236 l 632 236 l 632 236 m 574 58 l 574 178 l 218 178 l 218 414 l 574 414 l 574 532 l 218 532 l 218 769 l 574 769 l 574 888 l 276 888 l 218 888 l 99 888 l 99 58 l 218 58 l 276 58 l 574 58 l 574 58 m 543 147 l 543 89 l 276 89 l 218 89 l 129 89 l 129 858 l 218 858 l 276 858 l 543 858 l 543 799 l 189 799 l 189 503 l 543 503 l 543 443 l 189 443 l 189 147 l 543 147 l 543 147 z "},"R":{"ha":668,"x_min":40,"x_max":632,"o":"m 217 949 q 315 949 268 949 q 406 940 363 949 q 491 906 450 931 q 569 835 532 882 q 616 749 600 794 q 632 656 632 703 q 617 562 632 608 q 572 475 603 515 q 623 363 614 419 q 632 244 632 307 l 632 0 l 394 0 l 394 225 q 395 249 394 233 q 395 280 396 264 q 392 310 394 296 q 382 333 389 325 q 360 349 374 344 q 331 356 346 354 q 302 356 317 357 q 276 356 288 356 l 276 0 l 217 0 l 40 0 l 40 949 l 217 949 m 572 60 l 572 276 q 568 337 572 311 q 556 384 564 363 q 533 426 547 406 q 499 475 519 447 q 551 558 529 517 q 572 657 574 600 q 549 754 571 708 q 489 833 528 800 q 399 879 444 869 q 300 889 353 889 l 99 889 l 99 60 l 217 60 l 217 415 q 285 417 251 415 q 353 414 318 419 q 413 386 388 408 q 450 331 439 364 q 453 303 451 322 q 454 263 454 283 q 454 222 454 242 q 454 194 454 203 l 454 60 l 572 60 m 543 293 l 543 89 l 483 89 l 483 236 q 483 308 483 274 q 460 379 482 343 q 405 428 438 411 q 335 444 372 444 l 188 444 l 188 89 l 128 89 l 128 860 l 311 860 q 401 849 361 860 q 479 801 442 838 q 530 726 514 769 q 542 635 546 682 q 514 547 539 583 q 461 475 489 511 q 518 392 493 433 q 543 293 543 351 m 378 510 q 454 564 425 525 q 483 651 483 603 q 454 741 483 701 q 378 794 425 781 q 340 799 367 797 q 283 800 313 800 q 225 800 253 800 q 188 800 197 800 l 188 504 q 225 504 197 504 q 283 504 253 504 q 340 506 313 504 q 378 510 367 507 m 369 765 q 431 723 407 754 q 454 651 454 692 q 431 581 454 613 q 369 539 407 550 q 340 535 361 536 q 293 533 318 533 q 247 533 268 533 q 217 533 225 533 l 217 771 q 247 771 225 771 q 293 771 268 771 q 340 769 318 771 q 369 765 361 768 m 394 651 q 383 687 394 671 q 353 708 372 703 q 315 713 333 715 q 276 711 296 711 l 276 593 q 315 591 296 593 q 353 596 333 589 q 383 617 372 601 q 394 651 394 632 z "},"F":{"ha":668,"x_min":42,"x_max":635,"o":"m 635 593 l 635 356 l 279 356 l 279 0 l 219 0 l 42 0 l 42 949 l 219 949 l 279 949 l 635 949 l 635 711 l 279 711 l 279 593 l 635 593 l 635 593 m 575 415 l 575 533 l 219 533 l 219 771 l 575 771 l 575 889 l 279 889 l 219 889 l 101 889 l 101 60 l 219 60 l 219 415 l 575 415 l 575 415 m 546 504 l 546 444 l 190 444 l 190 89 l 131 89 l 131 860 l 546 860 l 546 800 l 190 800 l 190 504 l 546 504 l 546 504 z "},"O":{"ha":668,"x_min":36,"x_max":629,"o":"m 629 617 l 629 296 q 584 138 629 206 q 470 33 539 69 q 320 -1 401 -3 q 165 51 239 1 q 60 179 94 100 q 40 253 44 217 q 36 331 36 290 l 36 651 q 81 808 36 740 q 194 913 125 876 q 344 948 263 950 q 500 896 426 946 q 561 840 536 871 q 604 768 586 808 q 625 694 621 731 q 629 617 629 657 m 569 571 q 569 640 569 607 q 562 705 568 674 q 540 766 556 736 q 494 825 525 796 q 368 886 438 878 q 238 868 299 894 q 137 785 178 842 q 96 651 96 729 l 96 376 q 97 307 96 340 q 103 242 97 274 q 125 181 110 211 q 171 122 140 151 q 297 60 228 69 q 427 78 367 51 q 528 161 488 104 q 569 296 569 218 l 569 571 m 489 788 q 525 729 514 758 q 540 670 536 700 q 542 610 543 640 q 540 547 540 579 l 540 296 q 522 209 540 247 q 474 144 504 171 q 405 102 443 117 q 326 88 367 88 q 246 106 285 89 q 175 160 207 124 q 140 218 150 189 q 126 277 129 247 q 124 338 122 307 q 125 400 125 368 l 125 651 q 143 738 125 699 q 192 803 161 776 q 260 845 222 831 q 339 859 299 860 q 418 841 379 858 q 489 788 457 824 m 481 501 q 481 542 481 514 q 481 603 482 571 q 478 663 481 635 q 471 706 476 692 q 428 766 456 743 q 370 796 401 789 q 306 797 339 803 q 246 772 272 790 q 202 722 219 753 q 185 651 185 692 l 185 446 q 184 405 185 433 q 184 344 183 376 q 187 284 185 313 q 194 242 189 256 q 237 181 210 203 q 295 151 264 160 q 360 149 326 143 q 419 174 393 156 q 463 224 446 193 q 481 296 481 256 l 481 501 m 450 660 q 453 569 454 614 q 451 478 451 524 l 451 296 q 416 209 451 239 q 337 178 381 179 q 256 203 293 176 q 214 288 218 231 q 213 378 211 333 q 214 469 214 424 l 214 651 q 249 738 214 708 q 328 769 285 768 q 409 744 372 771 q 450 660 446 717 m 371 251 q 389 281 386 265 q 392 314 392 296 l 392 381 l 392 651 q 382 685 392 671 q 357 706 372 699 q 324 710 342 713 q 293 696 307 708 q 276 667 278 682 q 274 633 274 651 l 274 567 l 274 296 q 283 263 274 276 q 308 242 293 249 q 340 237 322 235 q 371 251 357 239 z "},"A":{"ha":668,"x_min":38,"x_max":631,"o":"m 631 356 l 631 0 l 393 0 l 393 236 l 275 236 l 275 0 l 38 0 l 38 469 q 38 517 38 483 q 38 587 38 550 q 39 657 38 624 q 43 704 40 690 q 86 813 54 763 q 167 896 118 863 q 276 942 218 931 q 390 942 333 953 q 496 899 446 931 q 581 815 546 867 q 624 706 617 761 q 631 590 631 651 l 631 503 l 631 356 m 571 542 q 572 601 571 572 q 572 660 574 631 q 562 718 569 689 q 536 776 554 747 q 451 859 504 829 q 335 889 397 889 q 218 859 272 889 q 132 776 164 829 q 106 718 114 747 q 97 660 99 689 q 96 601 94 631 q 97 542 97 572 l 97 58 l 215 58 l 215 296 l 453 296 l 453 58 l 571 58 l 571 542 m 517 751 q 535 699 529 728 q 542 642 540 671 q 542 585 543 613 q 542 533 542 557 l 542 89 l 482 89 l 482 325 l 186 325 l 186 89 l 126 89 l 126 533 q 126 585 126 557 q 126 642 125 613 q 133 699 128 671 q 151 750 139 726 q 228 830 179 801 q 335 858 276 858 q 440 830 392 858 q 517 751 489 801 m 482 385 l 482 635 q 472 698 482 668 q 444 751 463 728 q 398 787 425 774 q 335 800 371 800 q 271 787 299 800 q 224 751 243 774 q 196 698 206 728 q 186 635 186 668 l 186 385 l 482 385 m 453 626 l 453 414 l 215 414 l 215 626 q 219 678 215 654 q 242 726 222 703 q 282 760 261 750 q 335 769 303 769 q 386 760 365 769 q 426 726 407 750 q 449 678 446 703 q 453 626 453 654 m 393 610 q 394 642 393 626 q 388 676 396 658 q 335 711 372 711 q 281 676 296 711 q 274 642 272 658 q 275 610 275 626 l 275 474 l 393 474 l 393 610 z "},"C":{"ha":668,"x_min":40,"x_max":633,"o":"m 633 654 l 396 654 q 379 695 396 678 q 339 714 363 713 q 297 698 315 714 q 278 658 279 682 q 276 567 275 613 q 278 476 278 522 q 276 385 278 431 q 278 294 275 340 q 298 251 279 265 q 339 237 317 236 q 378 253 361 238 q 396 299 396 269 l 629 299 l 633 299 q 600 162 633 224 q 513 60 567 100 q 390 7 458 21 q 249 15 321 -7 q 131 85 182 36 q 57 201 81 135 q 43 268 46 235 q 40 336 40 301 l 40 476 l 40 615 q 43 685 40 651 q 57 751 46 718 q 131 867 81 818 q 249 938 181 917 q 389 946 319 960 q 513 892 458 932 q 600 791 567 853 q 633 654 633 729 m 439 714 l 567 714 q 515 810 551 769 q 431 871 479 850 q 328 891 383 892 q 222 863 274 890 q 142 790 174 835 q 103 692 111 746 q 101 651 101 682 q 100 584 100 619 q 100 517 100 549 q 100 476 100 486 q 100 435 100 467 q 100 369 100 404 q 101 302 100 333 q 103 261 101 271 q 142 163 111 207 q 222 90 174 118 q 328 61 274 63 q 431 81 383 60 q 515 142 479 101 q 567 239 551 183 l 439 239 q 395 195 422 210 q 339 180 368 181 q 282 193 310 179 q 236 236 254 207 q 217 294 217 265 q 218 354 218 324 l 218 476 l 218 599 q 217 658 218 629 q 236 717 217 688 q 282 760 254 746 q 339 773 310 774 q 395 758 368 772 q 439 714 422 743 m 524 743 l 456 743 q 401 788 433 772 q 336 803 369 803 q 272 788 303 803 q 218 744 240 774 q 192 681 194 713 q 189 614 189 649 l 189 476 l 189 340 q 192 273 189 304 q 218 210 194 242 q 272 165 240 181 q 336 150 303 150 q 401 165 369 150 q 456 210 433 181 l 524 210 q 466 137 503 165 q 385 98 429 108 q 296 96 342 88 q 211 133 250 104 q 153 203 174 161 q 129 292 132 244 q 128 385 128 339 q 129 476 129 431 q 128 568 129 522 q 129 661 128 614 q 153 750 132 708 q 211 819 174 792 q 296 858 250 849 q 385 856 342 867 q 466 817 429 846 q 524 743 503 788 z "},"G":{"ha":668,"x_min":38,"x_max":629,"o":"m 629 299 q 596 162 629 224 q 508 60 563 100 q 385 8 454 21 q 246 17 317 -6 q 128 86 178 38 q 54 201 78 135 q 40 268 42 235 q 38 338 38 301 l 38 476 l 38 617 q 40 685 38 651 q 54 751 42 718 q 128 867 78 818 q 246 938 178 917 q 385 946 317 960 q 508 892 454 932 q 596 791 563 853 q 629 654 629 729 l 393 654 q 374 699 393 681 q 328 714 354 717 q 286 691 299 711 q 274 644 274 671 l 274 447 l 274 349 q 274 301 274 329 q 293 256 274 274 q 338 240 313 238 q 381 263 364 242 q 389 284 386 271 q 393 310 392 297 q 394 337 394 324 q 393 358 393 350 l 290 358 l 290 596 l 629 596 l 629 299 m 569 283 q 572 347 572 315 q 571 410 571 378 l 571 536 l 349 536 l 349 418 l 451 418 q 451 390 451 411 q 451 346 451 369 q 451 301 451 322 q 449 274 450 281 q 413 212 440 238 q 349 182 386 186 q 279 194 313 176 q 229 244 246 211 q 219 276 222 257 q 215 315 215 296 q 215 354 214 335 q 215 386 215 374 l 215 531 q 215 558 215 536 q 215 603 215 579 q 215 649 215 628 q 217 675 215 669 q 251 741 224 717 q 313 772 279 765 q 381 764 347 778 q 436 714 415 750 l 563 714 q 499 826 546 782 q 392 884 451 869 q 271 883 333 899 q 161 817 208 868 q 122 761 136 789 q 103 704 108 733 q 97 644 97 675 q 96 581 96 614 l 96 328 q 115 205 96 258 q 194 107 133 151 q 311 63 247 69 q 433 85 375 57 q 529 165 493 113 q 569 283 565 218 m 540 507 q 542 395 540 450 q 540 285 544 340 q 504 181 536 228 q 421 111 472 135 q 312 93 368 88 q 210 132 256 99 q 142 219 157 172 q 126 326 126 265 l 126 549 q 125 603 126 576 q 125 658 124 631 q 134 711 126 685 q 158 764 142 738 q 241 840 190 815 q 345 861 292 864 q 447 828 399 858 q 521 743 494 799 l 451 743 q 383 794 424 781 q 303 799 343 807 q 232 763 264 792 q 189 689 200 735 q 185 656 186 681 q 185 606 185 632 q 185 555 185 579 q 185 522 185 531 l 185 356 q 185 313 185 333 q 188 274 185 293 q 199 235 190 254 q 225 197 208 215 q 296 155 254 165 q 379 158 338 144 q 447 204 419 171 q 481 279 474 238 q 483 322 483 301 q 482 363 482 342 l 482 447 l 379 447 l 379 507 l 540 507 z "},"I":{"ha":319,"x_min":42,"x_max":279,"o":"m 279 949 l 279 0 l 42 0 l 42 949 l 279 949 l 279 949 m 219 60 l 219 889 l 101 889 l 101 60 l 219 60 l 219 60 m 189 860 l 189 89 l 131 89 l 131 860 l 189 860 l 189 860 z "},"U":{"ha":668,"x_min":39,"x_max":631,"o":"m 631 390 q 631 320 631 354 q 626 253 631 286 q 609 187 621 219 q 574 122 597 154 q 469 32 532 64 q 335 0 406 0 q 199 33 263 0 q 94 124 136 65 q 59 188 71 156 q 43 253 47 219 q 39 320 39 286 q 39 390 39 354 l 39 949 l 275 949 l 275 653 l 275 593 l 275 428 l 275 315 q 287 261 275 285 q 335 238 299 238 q 383 261 371 238 q 394 315 394 285 l 394 428 l 394 617 l 394 653 l 394 949 l 631 949 l 631 390 m 536 172 q 562 231 554 201 q 572 289 569 260 q 572 347 574 318 q 571 407 571 376 l 571 889 l 453 889 l 453 653 l 453 617 l 453 382 q 453 351 453 369 q 453 315 454 333 q 450 278 453 296 q 442 247 447 260 q 398 197 426 215 q 335 178 369 178 q 270 197 299 178 q 226 247 242 215 q 219 278 221 260 q 216 315 217 296 q 216 351 215 333 q 217 382 217 369 l 217 593 l 217 653 l 217 889 l 97 889 l 97 407 q 96 347 97 376 q 97 289 94 318 q 107 231 99 260 q 133 172 115 201 q 219 90 165 119 q 335 60 272 60 q 451 90 397 60 q 536 172 504 119 m 542 415 q 542 363 542 392 q 542 306 543 335 q 535 249 540 276 q 517 197 529 221 q 441 119 489 147 q 335 90 393 90 q 228 119 276 90 q 153 197 181 147 q 135 249 140 221 q 128 306 129 276 q 127 363 126 335 q 128 415 128 392 l 128 860 l 186 860 l 186 653 l 186 593 l 186 358 q 187 286 186 321 q 210 217 188 251 q 264 167 231 185 q 335 149 297 149 q 405 167 372 149 q 458 217 438 185 q 482 286 482 251 q 482 358 482 321 l 482 617 l 482 653 l 482 860 l 542 860 l 542 415 z "},"S":{"ha":668,"x_min":35,"x_max":631,"o":"m 629 654 l 392 654 q 370 699 392 682 q 321 711 349 717 q 280 681 293 706 q 278 631 267 657 q 294 606 285 614 q 316 596 304 599 q 341 593 328 593 q 367 592 354 593 q 467 563 418 586 q 551 498 515 538 q 606 411 586 458 q 628 311 626 364 q 614 207 631 258 q 564 113 597 154 q 487 46 531 72 q 392 8 443 19 q 286 6 340 -3 q 186 40 232 14 q 107 106 140 67 q 55 194 74 144 q 36 299 36 244 l 274 299 q 295 253 274 271 q 344 240 317 235 q 385 270 372 246 q 388 321 399 294 q 371 345 381 338 q 349 356 361 353 q 324 358 338 358 q 299 360 311 358 q 199 389 247 365 q 115 453 150 414 q 59 540 79 493 q 37 640 39 588 q 51 746 35 693 q 101 838 68 797 q 177 906 133 879 q 273 944 221 933 q 379 946 325 954 q 479 911 433 938 q 558 846 525 885 q 610 758 592 807 q 629 654 629 708 m 435 713 l 563 713 q 519 801 550 763 q 446 862 488 839 q 356 890 404 885 q 258 878 307 894 q 174 828 210 861 q 117 752 138 794 q 96 660 97 710 q 114 564 94 611 q 168 484 133 518 q 249 432 203 450 q 294 421 272 424 q 340 417 317 418 q 389 403 369 414 q 426 371 408 393 q 447 326 442 350 q 449 279 453 303 q 433 235 446 256 q 399 200 419 214 q 353 181 378 185 q 306 183 329 178 q 263 202 283 188 q 231 239 243 217 l 103 239 q 147 151 115 189 q 219 90 178 113 q 310 63 261 68 q 407 74 358 57 q 492 124 456 90 q 548 199 528 157 q 569 291 568 242 q 551 388 571 340 q 498 467 533 433 q 417 519 463 501 q 371 531 393 528 q 325 535 349 533 q 239 581 272 539 q 218 625 224 601 q 216 672 213 649 q 233 717 219 696 q 267 751 246 738 q 312 769 288 765 q 359 769 336 774 q 402 749 382 764 q 435 713 422 735 m 519 742 l 451 742 q 373 797 419 785 q 285 794 326 808 q 213 742 243 779 q 185 651 183 706 q 215 565 186 603 q 289 513 243 526 q 333 506 311 506 q 378 500 356 506 q 423 485 401 494 q 464 458 444 475 q 522 384 503 426 q 540 297 540 342 q 520 208 540 251 q 461 135 500 165 q 375 95 421 104 q 285 97 329 86 q 204 135 242 107 q 146 210 167 164 l 214 210 q 292 155 246 167 q 381 158 339 143 q 452 209 422 172 q 481 300 482 246 q 451 387 481 349 q 376 439 422 425 q 332 446 354 446 q 288 451 310 446 q 201 493 242 461 q 144 567 163 524 q 125 655 125 610 q 145 743 125 700 q 204 817 165 786 q 290 856 243 847 q 380 855 336 865 q 461 816 424 844 q 519 742 499 788 z "},"L":{"ha":579,"x_min":46,"x_max":536,"o":"m 536 238 l 536 0 l 282 0 l 46 0 l 46 238 l 46 949 l 282 949 l 282 238 l 536 238 l 536 238 m 476 60 l 476 178 l 224 178 l 224 889 l 106 889 l 106 238 l 106 118 l 106 60 l 476 60 l 476 60 m 447 149 l 447 89 l 135 89 l 135 860 l 194 860 l 194 149 l 447 149 l 447 149 z "},"M":{"ha":1044,"x_min":46,"x_max":996,"o":"m 403 632 q 391 688 403 664 q 343 711 379 711 q 295 688 307 711 q 283 633 283 664 l 283 521 l 283 332 l 283 296 l 283 0 l 47 0 q 47 327 47 164 q 47 654 46 490 q 94 814 47 746 q 212 917 142 882 q 365 948 282 953 q 521 889 447 943 q 676 948 593 943 q 830 917 760 953 q 947 814 900 882 q 994 654 994 746 q 995 327 996 490 q 994 0 994 164 l 758 0 l 758 296 l 758 356 l 758 521 l 758 632 q 747 688 758 664 q 699 711 735 711 q 651 688 663 711 q 639 633 639 664 l 639 474 l 639 346 l 639 332 l 639 296 l 639 0 l 403 0 l 403 296 l 403 356 l 403 474 l 403 632 m 936 60 l 936 640 q 899 778 936 717 q 790 871 863 840 q 720 889 754 886 q 647 883 686 892 q 580 856 610 875 q 521 814 550 838 q 462 856 492 838 q 394 883 432 875 q 253 871 321 899 q 143 778 179 840 q 107 640 107 717 l 107 60 l 225 60 l 225 296 l 225 332 l 225 567 q 224 597 225 579 q 224 634 224 615 q 227 671 225 653 q 235 701 229 689 q 279 751 250 733 q 343 769 308 769 q 408 751 379 769 q 451 701 436 733 q 459 671 457 689 q 462 634 461 653 q 462 597 463 615 q 461 567 461 579 l 461 356 l 461 296 l 461 60 l 581 60 l 581 296 l 581 332 l 581 567 q 580 597 581 579 q 580 634 579 615 q 583 671 581 653 q 590 701 585 689 q 635 751 606 733 q 699 769 664 769 q 763 751 733 769 q 807 701 792 733 q 815 671 813 689 q 817 634 817 653 q 817 597 818 615 q 817 567 817 579 l 817 356 l 817 296 l 817 60 l 936 60 m 906 633 l 906 89 l 847 89 l 847 296 l 847 356 l 847 590 q 847 663 847 628 q 822 732 846 697 q 769 782 803 764 q 699 800 736 800 q 628 783 661 800 q 575 733 594 765 q 551 663 551 697 q 550 590 550 628 l 550 332 l 550 296 l 550 89 l 492 89 l 492 296 l 492 356 l 492 590 q 491 663 492 628 q 467 732 490 697 q 414 782 447 764 q 343 800 381 800 q 273 783 306 800 q 219 733 240 765 q 195 663 196 697 q 194 590 194 628 l 194 332 l 194 296 l 194 89 l 136 89 l 136 633 q 168 763 136 706 q 272 847 200 821 q 346 860 313 861 q 408 849 379 860 q 465 819 438 838 q 521 778 492 800 q 577 819 550 800 q 633 849 604 838 q 696 860 663 860 q 769 847 729 861 q 874 763 842 821 q 906 633 906 706 z "},"Y":{"ha":668,"x_min":39,"x_max":631,"o":"m 631 949 l 631 599 q 584 433 631 507 q 453 321 538 358 l 453 0 l 217 0 l 217 321 q 85 433 132 358 q 39 599 39 507 l 39 949 l 275 949 l 275 724 l 275 611 q 287 557 275 581 q 335 533 299 533 q 383 557 371 533 q 394 611 394 581 l 394 724 l 394 949 l 631 949 m 572 585 q 574 737 575 661 q 572 889 572 813 l 453 889 l 453 647 q 453 588 453 617 q 436 531 454 560 q 393 489 419 504 q 335 474 367 474 q 277 489 304 474 q 235 531 250 504 q 216 588 215 560 q 217 647 217 617 l 217 889 l 99 889 q 97 737 99 813 q 99 585 96 661 q 113 510 100 543 q 150 444 125 476 q 208 394 176 413 q 275 360 239 375 l 275 60 l 394 60 l 394 360 q 462 394 431 375 q 519 444 493 413 q 558 510 546 476 q 572 585 569 543 m 542 718 q 543 647 542 682 q 542 576 544 613 q 526 508 539 538 q 486 450 513 478 q 428 408 460 422 q 364 379 397 394 l 364 89 l 306 89 l 306 379 q 242 408 274 394 q 185 450 211 422 q 144 508 157 478 q 128 576 131 538 q 126 647 125 613 q 128 718 128 682 l 128 860 l 188 860 l 188 610 q 225 493 188 542 q 335 444 263 444 q 445 493 407 444 q 483 610 483 542 l 483 860 l 542 860 l 542 718 z "},"T":{"ha":599,"x_min":38,"x_max":563,"o":"m 563 949 l 563 711 l 418 711 l 418 0 l 182 0 l 182 711 l 38 711 l 38 949 l 563 949 l 563 949 m 504 771 l 504 889 l 96 889 l 96 771 l 240 771 l 240 60 l 360 60 l 360 771 l 504 771 l 504 771 m 474 860 l 474 800 l 331 800 l 331 89 l 271 89 l 271 800 l 126 800 l 126 860 l 474 860 l 474 860 z "},"W":{"ha":1029,"x_min":40,"x_max":992,"o":"m 397 317 l 397 475 l 397 604 l 397 617 l 397 653 l 397 950 l 635 950 l 635 653 l 635 594 l 635 593 l 635 475 l 635 317 q 646 263 635 286 q 693 239 657 239 q 741 263 729 239 q 753 317 753 286 l 753 429 l 753 617 l 753 653 l 753 950 l 990 950 q 991 623 990 786 q 990 296 992 460 q 968 184 990 235 q 910 95 946 133 q 826 33 874 57 q 725 3 778 8 q 618 11 672 -3 q 515 61 564 25 q 359 2 442 7 q 206 33 276 -3 q 89 136 136 68 q 42 296 42 204 q 41 623 40 460 q 42 950 42 786 l 279 950 l 279 653 l 279 593 l 279 429 l 279 317 q 290 263 279 286 q 338 239 301 239 q 385 263 374 239 q 397 317 397 286 m 931 310 l 931 890 l 813 890 l 813 653 l 813 617 l 813 382 q 813 353 813 371 q 812 316 813 335 q 809 279 811 297 q 801 249 807 261 q 758 198 786 217 q 693 179 729 179 q 630 198 658 179 q 586 249 601 217 q 578 279 581 261 q 574 316 575 297 q 574 353 574 335 q 575 382 575 371 l 575 594 l 575 653 l 575 890 l 457 890 l 457 653 l 457 617 l 457 382 q 457 353 457 371 q 456 316 457 335 q 453 279 456 297 q 446 249 451 261 q 402 198 431 217 q 338 179 374 179 q 274 198 303 179 q 231 249 246 217 q 222 279 225 261 q 219 316 219 297 q 219 353 218 335 q 219 382 219 371 l 219 593 l 219 653 l 219 890 l 101 890 l 101 310 q 138 172 101 233 q 247 79 174 110 q 317 61 283 64 q 389 67 351 58 q 456 94 426 75 q 515 135 486 113 q 575 94 546 113 q 642 67 604 75 q 715 61 681 58 q 785 79 749 64 q 894 172 858 110 q 931 310 931 233 m 901 861 l 901 317 q 869 186 901 243 q 764 103 836 129 q 691 89 724 88 q 629 101 658 90 q 572 131 600 113 q 515 172 544 150 q 459 131 486 150 q 403 101 432 113 q 340 89 374 90 q 267 103 307 88 q 163 186 194 129 q 131 317 131 243 l 131 861 l 190 861 l 190 653 l 190 593 l 190 360 q 190 287 190 322 q 214 217 190 251 q 267 167 235 185 q 338 150 300 150 q 409 167 376 150 q 463 217 442 185 q 485 287 485 251 q 486 360 486 322 l 486 617 l 486 653 l 486 861 l 546 861 l 546 653 l 546 594 l 546 360 q 546 287 546 322 q 569 217 546 251 q 623 167 590 185 q 693 150 656 150 q 764 167 731 150 q 818 217 797 185 q 841 287 840 251 q 842 360 842 322 l 842 617 l 842 653 l 842 861 l 901 861 z "},"J":{"ha":668,"x_min":29,"x_max":622,"o":"m 622 553 l 622 356 q 618 257 622 304 q 590 163 614 210 q 499 54 554 93 q 382 4 444 15 q 256 8 319 -7 q 143 62 193 24 q 61 160 93 100 q 29 297 29 219 l 33 297 l 267 297 q 288 251 267 269 q 338 239 310 232 q 379 271 367 244 q 385 294 386 282 q 385 319 385 307 l 385 529 l 385 949 l 622 949 l 622 553 m 558 251 q 560 283 560 258 q 562 341 561 308 q 563 411 563 374 q 563 481 563 449 q 563 538 563 514 q 563 569 563 563 l 563 889 l 444 889 l 444 438 l 444 325 q 441 269 444 296 q 415 219 438 243 q 369 186 396 196 q 315 178 342 176 q 263 196 288 181 q 224 238 239 211 l 96 238 q 149 136 111 176 q 233 77 186 96 q 333 60 281 58 q 431 83 385 61 q 511 147 476 106 q 558 251 546 189 m 533 860 l 533 299 q 510 201 533 243 q 452 132 488 158 q 372 95 417 106 q 283 93 326 85 q 201 130 239 101 q 139 208 163 158 l 207 208 q 251 169 225 183 q 306 150 278 154 q 362 153 333 146 q 415 178 390 160 q 455 221 442 197 q 472 276 468 244 q 475 335 476 306 q 474 393 474 364 l 474 860 l 533 860 z "},"K":{"ha":668,"x_min":51,"x_max":644,"o":"m 644 947 l 408 474 l 644 0 l 379 0 l 289 182 l 289 0 l 51 0 l 51 236 l 51 947 l 229 947 l 289 947 l 289 764 l 379 947 l 644 947 l 644 947 m 343 474 l 549 889 l 417 889 l 229 513 l 229 889 l 111 889 l 111 58 l 229 58 l 229 435 l 417 58 l 549 58 l 343 474 l 343 474 m 500 858 l 310 474 l 500 89 l 435 89 l 243 474 l 435 858 l 500 858 l 500 858 m 200 536 l 200 89 l 140 89 l 140 858 l 200 858 l 200 561 l 200 536 l 200 536 z "},"V":{"ha":640,"x_min":24,"x_max":615,"o":"m 615 949 l 467 0 l 172 0 l 24 949 l 263 949 l 319 592 l 376 949 l 615 949 l 615 949 m 415 60 l 546 889 l 426 889 l 319 211 l 213 889 l 93 889 l 224 60 l 415 60 l 415 60 m 511 860 l 390 89 l 331 89 l 308 89 l 249 89 l 128 860 l 188 860 l 297 165 l 342 165 l 451 860 l 511 860 l 511 860 z "},"Z":{"ha":706,"x_min":38,"x_max":658,"o":"m 658 236 l 658 0 l 38 0 l 38 236 l 38 236 l 369 711 l 38 711 l 38 947 l 658 947 l 658 711 l 328 236 l 658 236 l 658 236 m 600 58 l 600 178 l 214 178 l 600 729 l 600 889 l 97 889 l 97 769 l 483 769 l 97 217 l 97 58 l 600 58 l 600 58 m 569 147 l 569 89 l 126 89 l 126 207 l 540 800 l 126 800 l 126 858 l 569 858 l 569 739 l 157 147 l 569 147 l 569 147 z "},"X":{"ha":668,"x_min":17,"x_max":650,"o":"m 650 949 l 461 474 l 650 0 l 396 0 l 333 154 l 272 0 l 17 0 l 206 474 l 17 949 l 272 949 l 333 793 l 396 949 l 650 949 l 650 949 m 397 474 l 563 889 l 435 889 l 333 633 l 232 889 l 104 889 l 269 474 l 104 60 l 232 60 l 333 314 l 435 60 l 563 60 l 397 474 l 397 474 m 519 860 l 365 474 l 519 89 l 456 89 l 333 394 l 211 89 l 147 89 l 301 474 l 147 860 l 211 860 l 333 554 l 456 860 l 519 860 l 519 860 z "},"!":{"ha":314,"x_min":39,"x_max":275,"o":"m 275 949 l 275 297 l 39 297 l 39 949 l 275 949 m 217 356 l 217 889 l 97 889 l 97 356 l 217 356 m 157 238 q 240 203 206 238 q 275 119 275 168 q 240 35 275 69 q 157 0 206 0 q 74 35 108 0 q 39 119 39 69 q 74 203 39 168 q 157 238 108 238 m 217 119 q 199 160 217 143 q 157 178 182 178 q 115 160 132 178 q 97 119 97 143 q 115 77 97 94 q 157 60 132 60 q 199 77 182 60 q 217 119 217 94 m 186 860 l 186 385 l 128 385 l 128 860 l 186 860 m 157 149 q 178 140 169 149 q 186 119 186 131 q 178 98 186 107 q 157 89 169 89 q 136 98 144 89 q 128 119 128 107 q 136 140 128 131 q 157 149 144 149 z "},"?":{"ha":668,"x_min":38,"x_max":635,"o":"m 501 774 q 540 675 533 729 q 525 571 546 621 q 495 522 513 542 q 457 487 478 501 q 413 461 436 472 q 364 439 389 450 l 364 386 l 304 386 q 303 432 304 410 q 304 478 301 454 q 315 499 307 493 q 338 504 322 504 q 382 513 358 504 q 454 567 426 528 q 482 653 482 606 q 452 742 482 706 q 380 793 422 779 q 292 795 338 807 q 215 742 247 783 l 146 742 q 217 824 171 794 q 314 859 263 854 q 416 842 365 864 q 501 774 467 821 m 496 900 q 602 778 569 851 q 628 628 635 704 q 578 483 622 551 q 453 381 533 415 l 453 297 l 215 297 l 215 457 q 231 535 215 501 q 292 585 247 569 q 331 591 311 592 q 369 604 350 590 q 391 637 386 617 q 388 676 396 657 q 359 706 378 699 q 322 710 340 714 q 289 691 303 706 q 275 653 275 676 l 38 653 q 81 808 38 740 q 192 913 125 876 q 341 949 260 949 q 496 900 422 949 m 563 589 q 563 713 579 651 q 501 819 547 775 q 391 883 453 868 q 272 881 329 897 q 167 822 214 865 q 104 711 121 778 l 231 711 q 276 757 249 743 q 331 771 303 771 q 385 758 358 771 q 428 724 411 746 q 451 673 446 703 q 444 610 457 643 q 386 546 426 565 q 343 535 364 535 q 322 532 332 533 q 301 524 313 531 q 276 488 278 508 q 275 444 275 468 l 275 356 l 393 356 l 393 419 q 451 448 424 433 q 499 482 478 463 q 537 527 521 501 q 563 589 553 553 m 333 238 q 380 228 358 238 q 417 203 401 219 q 443 166 433 188 q 453 119 453 144 q 443 73 453 94 q 417 35 433 51 q 380 9 401 18 q 333 0 358 0 q 250 35 285 0 q 215 119 215 69 q 250 203 215 168 q 333 238 285 238 m 393 119 q 376 160 393 143 q 333 178 358 178 q 292 160 310 178 q 275 119 275 143 q 292 77 275 94 q 333 60 310 60 q 376 77 358 60 q 393 119 393 94 m 333 149 q 355 140 346 149 q 364 119 364 131 q 355 98 364 107 q 333 89 346 89 q 313 98 322 89 q 304 119 304 107 q 313 140 304 131 q 333 149 322 149 z "},"N":{"ha":668,"x_min":40,"x_max":633,"o":"m 576 825 q 612 760 600 793 q 628 694 624 728 q 633 627 633 661 q 633 558 633 593 l 633 0 l 396 0 l 396 296 l 396 356 l 396 521 l 396 632 q 384 688 396 664 q 336 711 372 711 q 289 688 300 711 q 278 632 278 664 l 278 521 l 278 332 l 278 296 l 278 0 l 40 0 l 40 558 q 40 628 40 593 q 45 696 40 663 q 62 761 50 729 q 97 825 74 793 q 202 915 139 883 q 336 947 265 947 q 472 915 408 947 q 576 825 535 883 m 574 542 q 575 601 574 572 q 574 660 576 631 q 565 718 572 689 q 539 776 557 747 q 452 859 506 829 q 336 889 399 889 q 220 859 274 889 q 135 776 167 829 q 109 718 117 747 q 99 660 101 689 q 99 601 97 631 q 100 542 100 572 l 100 60 l 218 60 l 218 296 l 218 332 l 218 567 q 217 597 218 579 q 217 634 217 615 q 221 671 218 653 q 229 701 224 689 q 273 751 244 733 q 336 769 301 769 q 401 751 372 769 q 444 700 429 732 q 452 671 450 689 q 455 634 454 653 q 456 597 456 615 q 456 567 456 579 l 456 356 l 456 296 l 456 60 l 574 60 l 574 542 m 518 750 q 537 699 531 726 q 544 642 543 671 q 545 585 546 613 q 544 533 544 557 l 544 89 l 485 89 l 485 296 l 485 356 l 485 590 q 485 663 485 628 q 461 732 485 697 q 407 782 440 764 q 336 800 374 800 q 266 782 299 800 q 213 732 233 764 q 189 662 189 697 q 189 590 189 626 l 189 332 l 189 296 l 189 89 l 129 89 l 129 533 q 128 585 129 557 q 129 642 128 613 q 136 699 131 671 q 154 751 142 728 q 231 830 182 801 q 336 858 279 858 q 442 829 394 858 q 518 750 490 800 z "},"Q":{"ha":668,"x_min":39,"x_max":632,"o":"m 629 668 q 631 595 632 632 q 629 522 629 558 l 629 378 q 628 305 629 340 q 622 235 628 269 q 601 169 615 201 q 560 104 586 136 l 629 -60 l 372 -60 l 347 0 q 335 -1 343 -1 q 201 31 264 -1 q 96 119 138 63 q 59 187 71 153 q 43 256 47 221 q 39 326 39 290 q 39 399 39 361 q 39 428 39 406 q 39 480 39 450 q 39 543 39 510 q 39 606 39 576 q 40 659 39 636 q 42 689 40 682 q 94 822 51 763 q 204 914 138 882 q 349 944 275 949 q 483 905 422 940 q 584 808 543 869 q 629 668 625 747 m 571 351 l 571 611 q 567 678 571 646 q 553 738 564 710 q 524 791 543 765 q 474 840 506 817 q 355 885 421 879 q 229 861 289 890 q 133 774 168 831 q 97 651 99 718 l 97 392 q 97 326 97 358 q 100 264 96 294 q 116 203 104 233 q 151 144 128 174 q 203 97 176 114 q 258 70 229 79 q 318 60 286 61 q 386 60 350 58 l 411 -1 l 540 -1 l 490 114 q 535 173 519 147 q 560 224 551 199 q 569 278 568 249 q 571 351 571 308 m 469 806 q 513 756 497 782 q 534 703 528 731 q 541 645 540 675 q 542 583 542 615 l 542 339 q 539 268 542 296 q 527 218 536 240 q 501 174 518 196 q 457 119 485 151 l 496 29 l 431 29 l 404 90 q 342 89 372 89 q 285 94 313 89 q 231 115 257 100 q 181 157 206 129 q 144 212 156 183 q 130 269 133 240 q 127 327 126 297 q 128 388 128 357 l 128 632 q 153 750 128 699 q 240 833 179 801 q 359 855 297 863 q 469 806 421 847 m 472 242 q 480 283 478 254 q 483 343 482 311 q 483 403 483 375 q 482 444 482 432 l 482 649 q 446 747 482 710 q 362 794 410 785 q 267 782 314 804 q 197 703 219 760 q 190 661 192 690 q 187 601 188 632 q 186 541 186 569 q 186 500 186 513 l 186 294 q 203 224 186 254 q 247 174 221 193 q 307 149 274 156 q 372 151 340 143 q 430 181 403 158 q 472 242 457 204 m 453 468 q 454 377 453 422 q 453 286 456 332 q 411 202 449 229 q 331 176 374 175 q 252 208 288 178 q 217 294 217 238 l 217 476 q 215 567 217 521 q 217 657 214 613 q 258 742 221 714 q 339 767 296 769 q 417 735 382 765 q 453 649 453 706 l 453 468 m 374 250 q 391 279 389 264 q 393 313 393 294 l 393 379 l 393 649 q 383 682 393 668 q 359 703 374 696 q 327 708 344 710 q 296 694 310 707 q 278 665 281 681 q 275 632 275 650 l 275 565 l 275 294 q 285 261 275 275 q 310 241 294 247 q 342 236 325 235 q 374 250 358 238 z "},".":{"ha":296,"x_min":28,"x_max":264,"o":"m 146 238 q 229 203 194 238 q 264 119 264 168 q 229 35 264 69 q 146 0 194 0 q 63 35 97 0 q 28 119 28 69 q 63 203 28 168 q 146 238 97 238 m 204 119 q 187 160 204 143 q 146 178 169 178 q 103 160 121 178 q 86 119 86 143 q 103 77 86 94 q 146 60 121 60 q 187 77 169 60 q 204 119 204 94 m 146 149 q 166 140 157 149 q 175 119 175 131 q 166 98 175 107 q 146 89 157 89 q 125 98 133 89 q 117 119 117 107 q 125 140 117 131 q 146 149 133 149 z "},":":{"ha":296,"x_min":28,"x_max":264,"o":"m 146 238 q 229 203 194 238 q 264 119 264 168 q 229 35 264 69 q 146 0 194 0 q 63 35 97 0 q 28 119 28 69 q 63 203 28 168 q 146 238 97 238 m 204 119 q 187 160 204 143 q 146 178 169 178 q 103 160 121 178 q 86 119 86 143 q 103 77 86 94 q 146 60 121 60 q 187 77 169 60 q 204 119 204 94 m 146 149 q 166 140 157 149 q 175 119 175 131 q 166 98 175 107 q 146 89 157 89 q 125 98 133 89 q 117 119 117 107 q 125 140 117 131 q 146 149 133 149 m 146 938 q 229 903 194 938 q 264 819 264 868 q 229 735 264 769 q 146 700 194 700 q 63 735 97 700 q 28 819 28 769 q 63 903 28 868 q 146 938 97 938 m 204 819 q 187 860 204 843 q 146 878 169 878 q 103 860 121 878 q 86 819 86 843 q 103 777 86 794 q 146 760 121 760 q 187 777 169 760 q 204 819 204 794 m 146 849 q 166 840 157 849 q 175 819 175 831 q 166 798 175 807 q 146 789 157 789 q 125 798 133 789 q 117 819 117 807 q 125 840 117 831 q 146 849 133 849 z "},";":{"ha":296,"x_min":25,"x_max":268,"o":"m 146 938 q 229 903 194 938 q 264 819 264 868 q 229 735 264 769 q 146 700 194 700 q 63 735 97 700 q 28 819 28 769 q 63 903 28 868 q 146 938 97 938 m 204 819 q 187 860 204 843 q 146 878 169 878 q 103 860 121 878 q 86 819 86 843 q 103 777 86 794 q 146 760 121 760 q 187 777 169 760 q 204 819 204 794 m 146 849 q 166 840 157 849 q 175 819 175 831 q 166 798 175 807 q 146 789 157 789 q 125 798 133 789 q 117 819 117 807 q 125 840 117 831 q 146 849 133 849 m 264 126 q 266 123 264 125 q 265 121 268 121 q 227 -29 265 36 q 126 -146 189 -94 q 97 -150 113 -157 q 79 -125 81 -143 q 71 -62 76 -94 q 60 -33 67 -47 q 47 -3 53 -18 q 31 58 36 28 q 28 121 25 88 q 63 204 28 169 q 147 239 97 239 q 231 204 196 239 q 256 167 247 188 q 260 155 258 160 q 263 143 261 150 q 263 138 263 140 q 264 132 264 135 l 264 126 m 131 -61 q 188 22 168 -21 q 206 121 207 64 q 188 163 206 146 q 144 181 169 181 q 103 161 118 179 q 88 118 88 143 l 88 115 q 86 94 86 108 q 88 81 88 90 q 92 60 90 69 q 96 40 93 50 q 107 8 101 24 q 119 -24 113 -8 q 126 -42 124 -33 q 128 -51 128 -47 q 131 -61 129 -56 m 176 121 q 142 1 176 57 q 129 32 135 17 q 121 63 124 47 q 119 76 119 69 q 117 90 118 83 q 116 101 117 96 q 117 111 115 106 l 117 117 q 122 140 117 132 q 144 150 128 149 q 167 143 157 151 q 176 121 176 135 z "},",":{"ha":294,"x_min":25,"x_max":268,"o":"m 264 126 q 266 123 264 125 q 265 121 268 121 q 227 -29 265 36 q 126 -146 189 -94 q 97 -150 113 -157 q 79 -125 81 -143 q 71 -62 76 -94 q 60 -33 67 -47 q 47 -3 53 -18 q 31 58 36 28 q 28 121 25 88 q 63 204 28 169 q 147 239 97 239 q 231 204 196 239 q 256 167 247 188 q 260 155 258 160 q 263 143 261 150 q 263 138 263 140 q 264 132 264 135 l 264 126 m 131 -61 q 188 22 168 -21 q 206 121 207 64 q 188 163 206 146 q 144 181 169 181 q 103 161 118 179 q 88 118 88 143 l 88 115 q 86 94 86 108 q 88 81 88 90 q 92 60 90 69 q 96 40 93 50 q 107 8 101 24 q 119 -24 113 -8 q 126 -42 124 -33 q 128 -51 128 -47 q 131 -61 129 -56 m 176 121 q 142 1 176 57 q 129 32 135 17 q 121 63 124 47 q 119 76 119 69 q 117 90 118 83 q 116 101 117 96 q 117 111 115 106 l 117 117 q 122 140 117 132 q 144 150 128 149 q 167 143 157 151 q 176 121 176 135 z "},"a":{"ha":668,"x_min":38,"x_max":631,"o":"m 631 356 l 631 0 l 393 0 l 393 236 l 275 236 l 275 0 l 38 0 l 38 469 q 38 517 38 483 q 38 587 38 550 q 39 657 38 624 q 43 704 40 690 q 86 813 54 763 q 167 896 118 863 q 276 942 218 931 q 390 942 333 953 q 496 899 446 931 q 581 815 546 867 q 624 706 617 761 q 631 590 631 651 l 631 503 l 631 356 m 571 542 q 572 601 571 572 q 572 660 574 631 q 562 718 569 689 q 536 776 554 747 q 451 859 504 829 q 335 889 397 889 q 218 859 272 889 q 132 776 164 829 q 106 718 114 747 q 97 660 99 689 q 96 601 94 631 q 97 542 97 572 l 97 58 l 215 58 l 215 296 l 453 296 l 453 58 l 571 58 l 571 542 m 517 751 q 535 699 529 728 q 542 642 540 671 q 542 585 543 613 q 542 533 542 557 l 542 89 l 482 89 l 482 325 l 186 325 l 186 89 l 126 89 l 126 533 q 126 585 126 557 q 126 642 125 613 q 133 699 128 671 q 151 750 139 726 q 228 830 179 801 q 335 858 276 858 q 440 830 392 858 q 517 751 489 801 m 482 385 l 482 635 q 472 698 482 668 q 444 751 463 728 q 398 787 425 774 q 335 800 371 800 q 271 787 299 800 q 224 751 243 774 q 196 698 206 728 q 186 635 186 668 l 186 385 l 482 385 m 453 626 l 453 414 l 215 414 l 215 626 q 219 678 215 654 q 242 726 222 703 q 282 760 261 750 q 335 769 303 769 q 386 760 365 769 q 426 726 407 750 q 449 678 446 703 q 453 626 453 654 m 393 610 q 394 642 393 626 q 388 676 396 658 q 335 711 372 711 q 281 676 296 711 q 274 642 272 658 q 275 610 275 626 l 275 474 l 393 474 l 393 610 z "},"b":{"ha":668,"x_min":43,"x_max":636,"o":"m 221 0 l 43 0 l 43 949 l 221 949 q 318 949 271 949 q 409 939 365 949 q 494 906 453 929 q 572 835 535 882 q 619 749 603 794 q 635 655 635 703 q 622 560 636 607 q 576 474 607 514 q 622 387 607 433 q 635 293 636 340 q 619 199 635 246 q 572 114 603 153 q 494 42 535 65 q 409 9 453 18 q 318 0 365 0 q 221 0 271 0 m 575 626 q 570 713 581 675 q 532 789 560 750 q 464 856 500 835 q 389 884 428 876 q 308 890 350 892 q 221 889 265 889 l 103 889 l 103 60 l 221 60 q 308 58 265 60 q 389 64 350 57 q 464 92 428 71 q 532 158 500 114 q 570 235 560 197 q 575 321 581 274 q 549 403 569 368 q 503 474 529 439 q 549 544 529 510 q 575 626 569 579 m 221 860 q 301 862 261 860 q 382 854 342 864 q 456 825 426 846 q 511 767 486 804 q 544 693 536 729 q 543 613 551 657 q 512 538 535 569 q 465 474 489 506 q 512 410 489 442 q 543 335 535 379 q 544 254 551 290 q 511 182 536 218 q 456 124 486 144 q 382 93 426 103 q 301 87 342 85 q 221 89 261 89 l 132 89 l 132 860 l 221 860 m 381 510 q 458 563 429 524 q 488 651 488 603 q 458 740 488 701 q 381 794 429 779 q 342 799 369 797 q 285 800 315 800 q 228 800 256 800 q 192 800 201 800 l 192 504 q 228 504 201 504 q 285 504 256 504 q 342 506 315 504 q 381 510 369 507 m 381 154 q 458 208 429 168 q 488 296 488 247 q 458 385 488 346 q 381 439 429 424 q 342 443 369 442 q 285 444 315 444 q 228 444 256 444 q 192 444 201 444 l 192 149 q 228 149 201 149 q 285 149 256 149 q 342 150 315 149 q 381 154 369 151 m 457 651 q 434 580 457 611 q 372 538 411 549 q 342 534 364 535 q 297 533 321 533 q 251 533 272 533 q 221 533 229 533 l 221 771 q 251 771 229 771 q 297 771 272 771 q 342 769 321 771 q 372 765 364 768 q 434 723 411 754 q 457 651 457 692 m 399 651 q 387 687 399 671 q 356 708 375 703 q 318 713 336 715 q 281 711 300 711 l 281 593 q 318 591 300 593 q 356 594 336 589 q 387 617 375 601 q 399 651 399 632 m 457 296 q 434 226 457 257 q 372 183 411 194 q 342 179 364 181 q 297 178 321 178 q 251 178 272 178 q 221 178 229 178 l 221 415 q 251 415 229 415 q 297 415 272 415 q 342 414 321 415 q 372 410 364 413 q 434 367 411 399 q 457 296 457 336 m 399 296 q 381 338 399 321 q 339 356 364 356 l 281 356 l 281 238 l 339 238 q 381 255 364 238 q 399 296 399 272 z "},"c":{"ha":668,"x_min":40,"x_max":633,"o":"m 633 654 l 396 654 q 379 695 396 678 q 339 714 363 713 q 297 698 315 714 q 278 658 279 682 q 276 567 275 613 q 278 476 278 522 q 276 385 278 431 q 278 294 275 340 q 298 251 279 265 q 339 237 317 236 q 378 253 361 238 q 396 299 396 269 l 629 299 l 633 299 q 600 162 633 224 q 513 60 567 100 q 390 7 458 21 q 249 15 321 -7 q 131 85 182 36 q 57 201 81 135 q 43 268 46 235 q 40 336 40 301 l 40 476 l 40 615 q 43 685 40 651 q 57 751 46 718 q 131 867 81 818 q 249 938 181 917 q 389 946 319 960 q 513 892 458 932 q 600 791 567 853 q 633 654 633 729 m 439 714 l 567 714 q 515 810 551 769 q 431 871 479 850 q 328 891 383 892 q 222 863 274 890 q 142 790 174 835 q 103 692 111 746 q 101 651 101 682 q 100 584 100 619 q 100 517 100 549 q 100 476 100 486 q 100 435 100 467 q 100 369 100 404 q 101 302 100 333 q 103 261 101 271 q 142 163 111 207 q 222 90 174 118 q 328 61 274 63 q 431 81 383 60 q 515 142 479 101 q 567 239 551 183 l 439 239 q 395 195 422 210 q 339 180 368 181 q 282 193 310 179 q 236 236 254 207 q 217 294 217 265 q 218 354 218 324 l 218 476 l 218 599 q 217 658 218 629 q 236 717 217 688 q 282 760 254 746 q 339 773 310 774 q 395 758 368 772 q 439 714 422 743 m 524 743 l 456 743 q 401 788 433 772 q 336 803 369 803 q 272 788 303 803 q 218 744 240 774 q 192 681 194 713 q 189 614 189 649 l 189 476 l 189 340 q 192 273 189 304 q 218 210 194 242 q 272 165 240 181 q 336 150 303 150 q 401 165 369 150 q 456 210 433 181 l 524 210 q 466 137 503 165 q 385 98 429 108 q 296 96 342 88 q 211 133 250 104 q 153 203 174 161 q 129 292 132 244 q 128 385 128 339 q 129 476 129 431 q 128 568 129 522 q 129 661 128 614 q 153 750 132 708 q 211 819 174 792 q 296 858 250 849 q 385 856 342 867 q 466 817 429 846 q 524 743 503 788 z "},"d":{"ha":668,"x_min":38,"x_max":629,"o":"m 629 651 l 629 296 q 606 181 629 235 q 543 86 583 126 q 449 23 503 46 q 333 0 394 0 l 274 0 l 215 0 l 38 0 l 38 947 l 215 947 l 274 947 l 333 947 q 449 924 394 947 q 543 861 503 901 q 606 767 583 821 q 629 651 629 713 m 569 296 l 569 651 q 551 743 569 700 q 500 818 532 786 q 425 869 468 850 q 333 888 382 888 l 274 888 l 215 888 l 96 888 l 96 58 l 274 58 l 333 58 q 425 77 382 58 q 500 128 468 96 q 551 203 532 160 q 569 296 569 247 m 540 651 l 540 296 q 524 215 540 253 q 479 149 507 178 q 414 105 451 121 q 333 89 376 89 l 303 89 l 274 89 l 126 89 l 126 858 l 215 858 l 274 858 l 333 858 q 414 842 376 858 q 479 797 451 825 q 524 732 507 769 q 540 651 540 694 m 481 296 l 481 651 q 438 756 481 714 q 333 799 396 799 l 185 799 l 185 710 l 185 356 l 185 147 l 333 147 q 391 159 364 147 q 438 191 418 171 q 469 238 457 211 q 481 296 481 265 m 451 651 l 451 296 q 417 213 451 247 q 333 178 382 178 l 215 178 l 215 356 l 215 710 l 215 769 l 333 769 q 417 735 382 769 q 451 651 451 700 m 393 293 q 394 369 394 332 q 393 443 393 406 l 393 594 q 394 630 393 613 q 390 665 396 647 l 390 668 l 390 669 q 389 671 389 669 l 389 672 q 388 675 388 674 q 386 676 388 676 l 386 679 q 385 681 385 681 q 383 683 385 682 l 382 685 l 381 686 q 379 688 379 688 q 376 692 378 690 q 374 693 375 693 q 372 696 374 694 q 369 699 372 696 q 366 701 367 700 q 363 703 365 701 q 360 703 361 703 q 358 704 360 704 q 356 706 357 706 q 354 707 356 706 q 351 708 353 707 q 347 708 350 708 q 310 712 328 714 q 274 710 293 710 l 274 592 l 274 236 q 311 235 293 236 q 349 239 329 233 q 380 259 368 244 q 393 293 392 274 z "},"e":{"ha":668,"x_min":40,"x_max":632,"o":"m 632 236 l 632 0 l 276 0 l 218 0 l 40 0 l 40 947 l 218 947 l 276 947 l 632 947 l 632 710 l 276 710 l 276 592 l 632 592 l 632 354 l 276 354 l 276 236 l 632 236 l 632 236 m 574 58 l 574 178 l 218 178 l 218 414 l 574 414 l 574 532 l 218 532 l 218 769 l 574 769 l 574 888 l 276 888 l 218 888 l 99 888 l 99 58 l 218 58 l 276 58 l 574 58 l 574 58 m 543 147 l 543 89 l 276 89 l 218 89 l 129 89 l 129 858 l 218 858 l 276 858 l 543 858 l 543 799 l 189 799 l 189 503 l 543 503 l 543 443 l 189 443 l 189 147 l 543 147 l 543 147 z "},"f":{"ha":668,"x_min":42,"x_max":635,"o":"m 635 593 l 635 356 l 279 356 l 279 0 l 219 0 l 42 0 l 42 949 l 219 949 l 279 949 l 635 949 l 635 711 l 279 711 l 279 593 l 635 593 l 635 593 m 575 415 l 575 533 l 219 533 l 219 771 l 575 771 l 575 889 l 279 889 l 219 889 l 101 889 l 101 60 l 219 60 l 219 415 l 575 415 l 575 415 m 546 504 l 546 444 l 190 444 l 190 89 l 131 89 l 131 860 l 546 860 l 546 800 l 190 800 l 190 504 l 546 504 l 546 504 z "},"g":{"ha":668,"x_min":38,"x_max":629,"o":"m 629 299 q 596 162 629 224 q 508 60 563 100 q 385 8 454 21 q 246 17 317 -6 q 128 86 178 38 q 54 201 78 135 q 40 268 42 235 q 38 338 38 301 l 38 476 l 38 617 q 40 685 38 651 q 54 751 42 718 q 128 867 78 818 q 246 938 178 917 q 385 946 317 960 q 508 892 454 932 q 596 791 563 853 q 629 654 629 729 l 393 654 q 374 699 393 681 q 328 714 354 717 q 286 691 299 711 q 274 644 274 671 l 274 447 l 274 349 q 274 301 274 329 q 293 256 274 274 q 338 240 313 238 q 381 263 364 242 q 389 284 386 271 q 393 310 392 297 q 394 337 394 324 q 393 358 393 350 l 290 358 l 290 596 l 629 596 l 629 299 m 569 283 q 572 347 572 315 q 571 410 571 378 l 571 536 l 349 536 l 349 418 l 451 418 q 451 390 451 411 q 451 346 451 369 q 451 301 451 322 q 449 274 450 281 q 413 212 440 238 q 349 182 386 186 q 279 194 313 176 q 229 244 246 211 q 219 276 222 257 q 215 315 215 296 q 215 354 214 335 q 215 386 215 374 l 215 531 q 215 558 215 536 q 215 603 215 579 q 215 649 215 628 q 217 675 215 669 q 251 741 224 717 q 313 772 279 765 q 381 764 347 778 q 436 714 415 750 l 563 714 q 499 826 546 782 q 392 884 451 869 q 271 883 333 899 q 161 817 208 868 q 122 761 136 789 q 103 704 108 733 q 97 644 97 675 q 96 581 96 614 l 96 328 q 115 205 96 258 q 194 107 133 151 q 311 63 247 69 q 433 85 375 57 q 529 165 493 113 q 569 283 565 218 m 540 507 q 542 395 540 450 q 540 285 544 340 q 504 181 536 228 q 421 111 472 135 q 312 93 368 88 q 210 132 256 99 q 142 219 157 172 q 126 326 126 265 l 126 549 q 125 603 126 576 q 125 658 124 631 q 134 711 126 685 q 158 764 142 738 q 241 840 190 815 q 345 861 292 864 q 447 828 399 858 q 521 743 494 799 l 451 743 q 383 794 424 781 q 303 799 343 807 q 232 763 264 792 q 189 689 200 735 q 185 656 186 681 q 185 606 185 632 q 185 555 185 579 q 185 522 185 531 l 185 356 q 185 313 185 333 q 188 274 185 293 q 199 235 190 254 q 225 197 208 215 q 296 155 254 165 q 379 158 338 144 q 447 204 419 171 q 481 279 474 238 q 483 322 483 301 q 482 363 482 342 l 482 447 l 379 447 l 379 507 l 540 507 z "},"h":{"ha":668,"x_min":36,"x_max":628,"o":"m 628 356 l 628 0 l 392 0 l 392 356 l 274 356 l 274 0 l 36 0 l 36 356 l 36 592 l 36 947 l 274 947 l 274 592 l 392 592 l 392 947 l 628 947 l 628 592 l 628 356 l 628 356 m 569 58 l 569 889 l 450 889 l 450 533 l 214 533 l 214 889 l 96 889 l 96 58 l 214 58 l 214 414 l 450 414 l 450 58 l 569 58 l 569 58 m 540 858 l 540 89 l 481 89 l 481 444 l 185 444 l 185 89 l 125 89 l 125 858 l 185 858 l 185 503 l 481 503 l 481 858 l 540 858 l 540 858 z "},"i":{"ha":319,"x_min":42,"x_max":279,"o":"m 279 949 l 279 0 l 42 0 l 42 949 l 279 949 l 279 949 m 219 60 l 219 889 l 101 889 l 101 60 l 219 60 l 219 60 m 189 860 l 189 89 l 131 89 l 131 860 l 189 860 l 189 860 z "},"j":{"ha":668,"x_min":29,"x_max":622,"o":"m 622 553 l 622 356 q 618 257 622 304 q 590 163 614 210 q 499 54 554 93 q 382 4 444 15 q 256 8 319 -7 q 143 62 193 24 q 61 160 93 100 q 29 297 29 219 l 33 297 l 267 297 q 288 251 267 269 q 338 239 310 232 q 379 271 367 244 q 385 294 386 282 q 385 319 385 307 l 385 529 l 385 949 l 622 949 l 622 553 m 558 251 q 560 283 560 258 q 562 341 561 308 q 563 411 563 374 q 563 481 563 449 q 563 538 563 514 q 563 569 563 563 l 563 889 l 444 889 l 444 438 l 444 325 q 441 269 444 296 q 415 219 438 243 q 369 186 396 196 q 315 178 342 176 q 263 196 288 181 q 224 238 239 211 l 96 238 q 149 136 111 176 q 233 77 186 96 q 333 60 281 58 q 431 83 385 61 q 511 147 476 106 q 558 251 546 189 m 533 860 l 533 299 q 510 201 533 243 q 452 132 488 158 q 372 95 417 106 q 283 93 326 85 q 201 130 239 101 q 139 208 163 158 l 207 208 q 251 169 225 183 q 306 150 278 154 q 362 153 333 146 q 415 178 390 160 q 455 221 442 197 q 472 276 468 244 q 475 335 476 306 q 474 393 474 364 l 474 860 l 533 860 z "},"k":{"ha":668,"x_min":51,"x_max":644,"o":"m 644 947 l 408 474 l 644 0 l 379 0 l 289 182 l 289 0 l 51 0 l 51 236 l 51 947 l 229 947 l 289 947 l 289 764 l 379 947 l 644 947 l 644 947 m 343 474 l 549 889 l 417 889 l 229 513 l 229 889 l 111 889 l 111 58 l 229 58 l 229 435 l 417 58 l 549 58 l 343 474 l 343 474 m 500 858 l 310 474 l 500 89 l 435 89 l 243 474 l 435 858 l 500 858 l 500 858 m 200 536 l 200 89 l 140 89 l 140 858 l 200 858 l 200 561 l 200 536 l 200 536 z "},"l":{"ha":579,"x_min":46,"x_max":536,"o":"m 536 238 l 536 0 l 282 0 l 46 0 l 46 238 l 46 949 l 282 949 l 282 238 l 536 238 l 536 238 m 476 60 l 476 178 l 224 178 l 224 889 l 106 889 l 106 238 l 106 118 l 106 60 l 476 60 l 476 60 m 447 149 l 447 89 l 135 89 l 135 860 l 194 860 l 194 149 l 447 149 l 447 149 z "},"m":{"ha":1044,"x_min":46,"x_max":996,"o":"m 403 632 q 391 688 403 664 q 343 711 379 711 q 295 688 307 711 q 283 633 283 664 l 283 521 l 283 332 l 283 296 l 283 0 l 47 0 q 47 327 47 164 q 47 654 46 490 q 94 814 47 746 q 212 917 142 882 q 365 948 282 953 q 521 889 447 943 q 676 948 593 943 q 830 917 760 953 q 947 814 900 882 q 994 654 994 746 q 995 327 996 490 q 994 0 994 164 l 758 0 l 758 296 l 758 356 l 758 521 l 758 632 q 747 688 758 664 q 699 711 735 711 q 651 688 663 711 q 639 633 639 664 l 639 474 l 639 346 l 639 332 l 639 296 l 639 0 l 403 0 l 403 296 l 403 356 l 403 474 l 403 632 m 936 60 l 936 640 q 899 778 936 717 q 790 871 863 840 q 720 889 754 886 q 647 883 686 892 q 580 856 610 875 q 521 814 550 838 q 462 856 492 838 q 394 883 432 875 q 253 871 321 899 q 143 778 179 840 q 107 640 107 717 l 107 60 l 225 60 l 225 296 l 225 332 l 225 567 q 224 597 225 579 q 224 634 224 615 q 227 671 225 653 q 235 701 229 689 q 279 751 250 733 q 343 769 308 769 q 408 751 379 769 q 451 701 436 733 q 459 671 457 689 q 462 634 461 653 q 462 597 463 615 q 461 567 461 579 l 461 356 l 461 296 l 461 60 l 581 60 l 581 296 l 581 332 l 581 567 q 580 597 581 579 q 580 634 579 615 q 583 671 581 653 q 590 701 585 689 q 635 751 606 733 q 699 769 664 769 q 763 751 733 769 q 807 701 792 733 q 815 671 813 689 q 817 634 817 653 q 817 597 818 615 q 817 567 817 579 l 817 356 l 817 296 l 817 60 l 936 60 m 906 633 l 906 89 l 847 89 l 847 296 l 847 356 l 847 590 q 847 663 847 628 q 822 732 846 697 q 769 782 803 764 q 699 800 736 800 q 628 783 661 800 q 575 733 594 765 q 551 663 551 697 q 550 590 550 628 l 550 332 l 550 296 l 550 89 l 492 89 l 492 296 l 492 356 l 492 590 q 491 663 492 628 q 467 732 490 697 q 414 782 447 764 q 343 800 381 800 q 273 783 306 800 q 219 733 240 765 q 195 663 196 697 q 194 590 194 628 l 194 332 l 194 296 l 194 89 l 136 89 l 136 633 q 168 763 136 706 q 272 847 200 821 q 346 860 313 861 q 408 849 379 860 q 465 819 438 838 q 521 778 492 800 q 577 819 550 800 q 633 849 604 838 q 696 860 663 860 q 769 847 729 861 q 874 763 842 821 q 906 633 906 706 z "},"n":{"ha":668,"x_min":40,"x_max":633,"o":"m 576 825 q 612 760 600 793 q 628 694 624 728 q 633 627 633 661 q 633 558 633 593 l 633 0 l 396 0 l 396 296 l 396 356 l 396 521 l 396 632 q 384 688 396 664 q 336 711 372 711 q 289 688 300 711 q 278 632 278 664 l 278 521 l 278 332 l 278 296 l 278 0 l 40 0 l 40 558 q 40 628 40 593 q 45 696 40 663 q 62 761 50 729 q 97 825 74 793 q 202 915 139 883 q 336 947 265 947 q 472 915 408 947 q 576 825 535 883 m 574 542 q 575 601 574 572 q 574 660 576 631 q 565 718 572 689 q 539 776 557 747 q 452 859 506 829 q 336 889 399 889 q 220 859 274 889 q 135 776 167 829 q 109 718 117 747 q 99 660 101 689 q 99 601 97 631 q 100 542 100 572 l 100 60 l 218 60 l 218 296 l 218 332 l 218 567 q 217 597 218 579 q 217 634 217 615 q 221 671 218 653 q 229 701 224 689 q 273 751 244 733 q 336 769 301 769 q 401 751 372 769 q 444 700 429 732 q 452 671 450 689 q 455 634 454 653 q 456 597 456 615 q 456 567 456 579 l 456 356 l 456 296 l 456 60 l 574 60 l 574 542 m 518 750 q 537 699 531 726 q 544 642 543 671 q 545 585 546 613 q 544 533 544 557 l 544 89 l 485 89 l 485 296 l 485 356 l 485 590 q 485 663 485 628 q 461 732 485 697 q 407 782 440 764 q 336 800 374 800 q 266 782 299 800 q 213 732 233 764 q 189 662 189 697 q 189 590 189 626 l 189 332 l 189 296 l 189 89 l 129 89 l 129 533 q 128 585 129 557 q 129 642 128 613 q 136 699 131 671 q 154 751 142 728 q 231 830 182 801 q 336 858 279 858 q 442 829 394 858 q 518 750 490 800 z "},"o":{"ha":668,"x_min":36,"x_max":629,"o":"m 629 617 l 629 296 q 584 138 629 206 q 470 33 539 69 q 320 -1 401 -3 q 165 51 239 1 q 60 179 94 100 q 40 253 44 217 q 36 331 36 290 l 36 651 q 81 808 36 740 q 194 913 125 876 q 344 948 263 950 q 500 896 426 946 q 561 840 536 871 q 604 768 586 808 q 625 694 621 731 q 629 617 629 657 m 569 571 q 569 640 569 607 q 562 705 568 674 q 540 766 556 736 q 494 825 525 796 q 368 886 438 878 q 238 868 299 894 q 137 785 178 842 q 96 651 96 729 l 96 376 q 97 307 96 340 q 103 242 97 274 q 125 181 110 211 q 171 122 140 151 q 297 60 228 69 q 427 78 367 51 q 528 161 488 104 q 569 296 569 218 l 569 571 m 489 788 q 525 729 514 758 q 540 670 536 700 q 542 610 543 640 q 540 547 540 579 l 540 296 q 522 209 540 247 q 474 144 504 171 q 405 102 443 117 q 326 88 367 88 q 246 106 285 89 q 175 160 207 124 q 140 218 150 189 q 126 277 129 247 q 124 338 122 307 q 125 400 125 368 l 125 651 q 143 738 125 699 q 192 803 161 776 q 260 845 222 831 q 339 859 299 860 q 418 841 379 858 q 489 788 457 824 m 481 501 q 481 542 481 514 q 481 603 482 571 q 478 663 481 635 q 471 706 476 692 q 428 766 456 743 q 370 796 401 789 q 306 797 339 803 q 246 772 272 790 q 202 722 219 753 q 185 651 185 692 l 185 446 q 184 405 185 433 q 184 344 183 376 q 187 284 185 313 q 194 242 189 256 q 237 181 210 203 q 295 151 264 160 q 360 149 326 143 q 419 174 393 156 q 463 224 446 193 q 481 296 481 256 l 481 501 m 450 660 q 453 569 454 614 q 451 478 451 524 l 451 296 q 416 209 451 239 q 337 178 381 179 q 256 203 293 176 q 214 288 218 231 q 213 378 211 333 q 214 469 214 424 l 214 651 q 249 738 214 708 q 328 769 285 768 q 409 744 372 771 q 450 660 446 717 m 371 251 q 389 281 386 265 q 392 314 392 296 l 392 381 l 392 651 q 382 685 392 671 q 357 706 372 699 q 324 710 342 713 q 293 696 307 708 q 276 667 278 682 q 274 633 274 651 l 274 567 l 274 296 q 283 263 274 276 q 308 242 293 249 q 340 237 322 235 q 371 251 357 239 z "},"p":{"ha":668,"x_min":49,"x_max":642,"o":"m 286 947 q 353 946 321 947 q 415 938 385 944 q 475 917 446 931 q 533 881 504 904 q 613 778 585 838 q 642 651 642 718 q 613 524 642 585 q 533 422 585 464 q 475 385 504 399 q 415 365 446 372 q 353 357 385 358 q 286 356 321 356 l 286 0 l 49 0 l 49 947 l 226 947 l 286 947 m 490 464 q 570 574 547 508 q 575 710 593 640 q 506 826 557 779 q 383 885 454 874 q 333 887 374 886 q 245 888 292 888 q 158 889 199 889 q 108 889 118 889 l 108 58 l 226 58 l 226 414 q 295 413 261 414 q 362 414 329 411 q 426 428 394 417 q 490 464 458 439 m 550 681 q 531 558 560 615 q 444 469 503 501 q 385 449 415 453 q 324 444 356 444 l 197 444 l 197 89 l 138 89 l 138 858 q 185 858 149 858 q 263 858 221 858 q 341 857 304 858 q 389 854 378 856 q 497 793 453 840 q 550 681 540 746 m 388 510 q 464 563 435 524 q 493 651 493 603 q 464 740 493 700 q 388 793 435 779 q 349 797 376 796 q 292 799 322 799 q 234 800 261 800 q 197 800 207 800 l 197 503 q 234 503 207 503 q 292 503 261 503 q 349 506 322 504 q 388 510 376 507 m 464 651 q 440 580 464 611 q 379 538 417 549 q 349 534 371 535 q 303 533 328 533 q 256 533 278 533 q 226 533 235 533 l 226 769 q 256 769 235 769 q 303 769 278 769 q 349 768 328 769 q 379 765 371 767 q 440 723 417 754 q 464 651 464 692 m 404 651 q 393 687 404 671 q 363 708 382 703 q 324 713 343 714 q 286 711 306 711 l 286 592 q 324 590 306 592 q 363 594 343 589 q 393 616 382 600 q 404 651 404 632 z "},"q":{"ha":668,"x_min":39,"x_max":632,"o":"m 629 668 q 631 595 632 632 q 629 522 629 558 l 629 378 q 628 305 629 340 q 622 235 628 269 q 601 169 615 201 q 560 104 586 136 l 629 -60 l 372 -60 l 347 0 q 335 -1 343 -1 q 201 31 264 -1 q 96 119 138 63 q 59 187 71 153 q 43 256 47 221 q 39 326 39 290 q 39 399 39 361 q 39 428 39 406 q 39 480 39 450 q 39 543 39 510 q 39 606 39 576 q 40 659 39 636 q 42 689 40 682 q 94 822 51 763 q 204 914 138 882 q 349 944 275 949 q 483 905 422 940 q 584 808 543 869 q 629 668 625 747 m 571 351 l 571 611 q 567 678 571 646 q 553 738 564 710 q 524 791 543 765 q 474 840 506 817 q 355 885 421 879 q 229 861 289 890 q 133 774 168 831 q 97 651 99 718 l 97 392 q 97 326 97 358 q 100 264 96 294 q 116 203 104 233 q 151 144 128 174 q 203 97 176 114 q 258 70 229 79 q 318 60 286 61 q 386 60 350 58 l 411 -1 l 540 -1 l 490 114 q 535 173 519 147 q 560 224 551 199 q 569 278 568 249 q 571 351 571 308 m 469 806 q 513 756 497 782 q 534 703 528 731 q 541 645 540 675 q 542 583 542 615 l 542 339 q 539 268 542 296 q 527 218 536 240 q 501 174 518 196 q 457 119 485 151 l 496 29 l 431 29 l 404 90 q 342 89 372 89 q 285 94 313 89 q 231 115 257 100 q 181 157 206 129 q 144 212 156 183 q 130 269 133 240 q 127 327 126 297 q 128 388 128 357 l 128 632 q 153 750 128 699 q 240 833 179 801 q 359 855 297 863 q 469 806 421 847 m 472 242 q 480 283 478 254 q 483 343 482 311 q 483 403 483 375 q 482 444 482 432 l 482 649 q 446 747 482 710 q 362 794 410 785 q 267 782 314 804 q 197 703 219 760 q 190 661 192 690 q 187 601 188 632 q 186 541 186 569 q 186 500 186 513 l 186 294 q 203 224 186 254 q 247 174 221 193 q 307 149 274 156 q 372 151 340 143 q 430 181 403 158 q 472 242 457 204 m 453 468 q 454 377 453 422 q 453 286 456 332 q 411 202 449 229 q 331 176 374 175 q 252 208 288 178 q 217 294 217 238 l 217 476 q 215 567 217 521 q 217 657 214 613 q 258 742 221 714 q 339 767 296 769 q 417 735 382 765 q 453 649 453 706 l 453 468 m 374 250 q 391 279 389 264 q 393 313 393 294 l 393 379 l 393 649 q 383 682 393 668 q 359 703 374 696 q 327 708 344 710 q 296 694 310 707 q 278 665 281 681 q 275 632 275 650 l 275 565 l 275 294 q 285 261 275 275 q 310 241 294 247 q 342 236 325 235 q 374 250 358 238 z "},"r":{"ha":668,"x_min":40,"x_max":632,"o":"m 217 949 q 315 949 268 949 q 406 940 363 949 q 491 906 450 931 q 569 835 532 882 q 616 749 600 794 q 632 656 632 703 q 617 562 632 608 q 572 475 603 515 q 623 363 614 419 q 632 244 632 307 l 632 0 l 394 0 l 394 225 q 395 249 394 233 q 395 280 396 264 q 392 310 394 296 q 382 333 389 325 q 360 349 374 344 q 331 356 346 354 q 302 356 317 357 q 276 356 288 356 l 276 0 l 217 0 l 40 0 l 40 949 l 217 949 m 572 60 l 572 276 q 568 337 572 311 q 556 384 564 363 q 533 426 547 406 q 499 475 519 447 q 551 558 529 517 q 572 657 574 600 q 549 754 571 708 q 489 833 528 800 q 399 879 444 869 q 300 889 353 889 l 99 889 l 99 60 l 217 60 l 217 415 q 285 417 251 415 q 353 414 318 419 q 413 386 388 408 q 450 331 439 364 q 453 303 451 322 q 454 263 454 283 q 454 222 454 242 q 454 194 454 203 l 454 60 l 572 60 m 543 293 l 543 89 l 483 89 l 483 236 q 483 308 483 274 q 460 379 482 343 q 405 428 438 411 q 335 444 372 444 l 188 444 l 188 89 l 128 89 l 128 860 l 311 860 q 401 849 361 860 q 479 801 442 838 q 530 726 514 769 q 542 635 546 682 q 514 547 539 583 q 461 475 489 511 q 518 392 493 433 q 543 293 543 351 m 378 510 q 454 564 425 525 q 483 651 483 603 q 454 741 483 701 q 378 794 425 781 q 340 799 367 797 q 283 800 313 800 q 225 800 253 800 q 188 800 197 800 l 188 504 q 225 504 197 504 q 283 504 253 504 q 340 506 313 504 q 378 510 367 507 m 369 765 q 431 723 407 754 q 454 651 454 692 q 431 581 454 613 q 369 539 407 550 q 340 535 361 536 q 293 533 318 533 q 247 533 268 533 q 217 533 225 533 l 217 771 q 247 771 225 771 q 293 771 268 771 q 340 769 318 771 q 369 765 361 768 m 394 651 q 383 687 394 671 q 353 708 372 703 q 315 713 333 715 q 276 711 296 711 l 276 593 q 315 591 296 593 q 353 596 333 589 q 383 617 372 601 q 394 651 394 632 z "},"s":{"ha":668,"x_min":35,"x_max":631,"o":"m 629 654 l 392 654 q 370 699 392 682 q 321 711 349 717 q 280 681 293 706 q 278 631 267 657 q 294 606 285 614 q 316 596 304 599 q 341 593 328 593 q 367 592 354 593 q 467 563 418 586 q 551 498 515 538 q 606 411 586 458 q 628 311 626 364 q 614 207 631 258 q 564 113 597 154 q 487 46 531 72 q 392 8 443 19 q 286 6 340 -3 q 186 40 232 14 q 107 106 140 67 q 55 194 74 144 q 36 299 36 244 l 274 299 q 295 253 274 271 q 344 240 317 235 q 385 270 372 246 q 388 321 399 294 q 371 345 381 338 q 349 356 361 353 q 324 358 338 358 q 299 360 311 358 q 199 389 247 365 q 115 453 150 414 q 59 540 79 493 q 37 640 39 588 q 51 746 35 693 q 101 838 68 797 q 177 906 133 879 q 273 944 221 933 q 379 946 325 954 q 479 911 433 938 q 558 846 525 885 q 610 758 592 807 q 629 654 629 708 m 435 713 l 563 713 q 519 801 550 763 q 446 862 488 839 q 356 890 404 885 q 258 878 307 894 q 174 828 210 861 q 117 752 138 794 q 96 660 97 710 q 114 564 94 611 q 168 484 133 518 q 249 432 203 450 q 294 421 272 424 q 340 417 317 418 q 389 403 369 414 q 426 371 408 393 q 447 326 442 350 q 449 279 453 303 q 433 235 446 256 q 399 200 419 214 q 353 181 378 185 q 306 183 329 178 q 263 202 283 188 q 231 239 243 217 l 103 239 q 147 151 115 189 q 219 90 178 113 q 310 63 261 68 q 407 74 358 57 q 492 124 456 90 q 548 199 528 157 q 569 291 568 242 q 551 388 571 340 q 498 467 533 433 q 417 519 463 501 q 371 531 393 528 q 325 535 349 533 q 239 581 272 539 q 218 625 224 601 q 216 672 213 649 q 233 717 219 696 q 267 751 246 738 q 312 769 288 765 q 359 769 336 774 q 402 749 382 764 q 435 713 422 735 m 519 742 l 451 742 q 373 797 419 785 q 285 794 326 808 q 213 742 243 779 q 185 651 183 706 q 215 565 186 603 q 289 513 243 526 q 333 506 311 506 q 378 500 356 506 q 423 485 401 494 q 464 458 444 475 q 522 384 503 426 q 540 297 540 342 q 520 208 540 251 q 461 135 500 165 q 375 95 421 104 q 285 97 329 86 q 204 135 242 107 q 146 210 167 164 l 214 210 q 292 155 246 167 q 381 158 339 143 q 452 209 422 172 q 481 300 482 246 q 451 387 481 349 q 376 439 422 425 q 332 446 354 446 q 288 451 310 446 q 201 493 242 461 q 144 567 163 524 q 125 655 125 610 q 145 743 125 700 q 204 817 165 786 q 290 856 243 847 q 380 855 336 865 q 461 816 424 844 q 519 742 499 788 z "},"t":{"ha":599,"x_min":38,"x_max":563,"o":"m 563 949 l 563 711 l 418 711 l 418 0 l 182 0 l 182 711 l 38 711 l 38 949 l 563 949 l 563 949 m 504 771 l 504 889 l 96 889 l 96 771 l 240 771 l 240 60 l 360 60 l 360 771 l 504 771 l 504 771 m 474 860 l 474 800 l 331 800 l 331 89 l 271 89 l 271 800 l 126 800 l 126 860 l 474 860 l 474 860 z "},"u":{"ha":668,"x_min":39,"x_max":631,"o":"m 631 390 q 631 320 631 354 q 626 253 631 286 q 609 187 621 219 q 574 122 597 154 q 469 32 532 64 q 335 0 406 0 q 199 33 263 0 q 94 124 136 65 q 59 188 71 156 q 43 253 47 219 q 39 320 39 286 q 39 390 39 354 l 39 949 l 275 949 l 275 653 l 275 593 l 275 428 l 275 315 q 287 261 275 285 q 335 238 299 238 q 383 261 371 238 q 394 315 394 285 l 394 428 l 394 617 l 394 653 l 394 949 l 631 949 l 631 390 m 536 172 q 562 231 554 201 q 572 289 569 260 q 572 347 574 318 q 571 407 571 376 l 571 889 l 453 889 l 453 653 l 453 617 l 453 382 q 453 351 453 369 q 453 315 454 333 q 450 278 453 296 q 442 247 447 260 q 398 197 426 215 q 335 178 369 178 q 270 197 299 178 q 226 247 242 215 q 219 278 221 260 q 216 315 217 296 q 216 351 215 333 q 217 382 217 369 l 217 593 l 217 653 l 217 889 l 97 889 l 97 407 q 96 347 97 376 q 97 289 94 318 q 107 231 99 260 q 133 172 115 201 q 219 90 165 119 q 335 60 272 60 q 451 90 397 60 q 536 172 504 119 m 542 415 q 542 363 542 392 q 542 306 543 335 q 535 249 540 276 q 517 197 529 221 q 441 119 489 147 q 335 90 393 90 q 228 119 276 90 q 153 197 181 147 q 135 249 140 221 q 128 306 129 276 q 127 363 126 335 q 128 415 128 392 l 128 860 l 186 860 l 186 653 l 186 593 l 186 358 q 187 286 186 321 q 210 217 188 251 q 264 167 231 185 q 335 149 297 149 q 405 167 372 149 q 458 217 438 185 q 482 286 482 251 q 482 358 482 321 l 482 617 l 482 653 l 482 860 l 542 860 l 542 415 z "},"v":{"ha":640,"x_min":24,"x_max":615,"o":"m 615 949 l 467 0 l 172 0 l 24 949 l 263 949 l 319 592 l 376 949 l 615 949 l 615 949 m 415 60 l 546 889 l 426 889 l 319 211 l 213 889 l 93 889 l 224 60 l 415 60 l 415 60 m 511 860 l 390 89 l 331 89 l 308 89 l 249 89 l 128 860 l 188 860 l 297 165 l 342 165 l 451 860 l 511 860 l 511 860 z "},"w":{"ha":1029,"x_min":40,"x_max":992,"o":"m 397 317 l 397 475 l 397 604 l 397 617 l 397 653 l 397 950 l 635 950 l 635 653 l 635 594 l 635 593 l 635 475 l 635 317 q 646 263 635 286 q 693 239 657 239 q 741 263 729 239 q 753 317 753 286 l 753 429 l 753 617 l 753 653 l 753 950 l 990 950 q 991 623 990 786 q 990 296 992 460 q 968 184 990 235 q 910 95 946 133 q 826 33 874 57 q 725 3 778 8 q 618 11 672 -3 q 515 61 564 25 q 359 2 442 7 q 206 33 276 -3 q 89 136 136 68 q 42 296 42 204 q 41 623 40 460 q 42 950 42 786 l 279 950 l 279 653 l 279 593 l 279 429 l 279 317 q 290 263 279 286 q 338 239 301 239 q 385 263 374 239 q 397 317 397 286 m 931 310 l 931 890 l 813 890 l 813 653 l 813 617 l 813 382 q 813 353 813 371 q 812 316 813 335 q 809 279 811 297 q 801 249 807 261 q 758 198 786 217 q 693 179 729 179 q 630 198 658 179 q 586 249 601 217 q 578 279 581 261 q 574 316 575 297 q 574 353 574 335 q 575 382 575 371 l 575 594 l 575 653 l 575 890 l 457 890 l 457 653 l 457 617 l 457 382 q 457 353 457 371 q 456 316 457 335 q 453 279 456 297 q 446 249 451 261 q 402 198 431 217 q 338 179 374 179 q 274 198 303 179 q 231 249 246 217 q 222 279 225 261 q 219 316 219 297 q 219 353 218 335 q 219 382 219 371 l 219 593 l 219 653 l 219 890 l 101 890 l 101 310 q 138 172 101 233 q 247 79 174 110 q 317 61 283 64 q 389 67 351 58 q 456 94 426 75 q 515 135 486 113 q 575 94 546 113 q 642 67 604 75 q 715 61 681 58 q 785 79 749 64 q 894 172 858 110 q 931 310 931 233 m 901 861 l 901 317 q 869 186 901 243 q 764 103 836 129 q 691 89 724 88 q 629 101 658 90 q 572 131 600 113 q 515 172 544 150 q 459 131 486 150 q 403 101 432 113 q 340 89 374 90 q 267 103 307 88 q 163 186 194 129 q 131 317 131 243 l 131 861 l 190 861 l 190 653 l 190 593 l 190 360 q 190 287 190 322 q 214 217 190 251 q 267 167 235 185 q 338 150 300 150 q 409 167 376 150 q 463 217 442 185 q 485 287 485 251 q 486 360 486 322 l 486 617 l 486 653 l 486 861 l 546 861 l 546 653 l 546 594 l 546 360 q 546 287 546 322 q 569 217 546 251 q 623 167 590 185 q 693 150 656 150 q 764 167 731 150 q 818 217 797 185 q 841 287 840 251 q 842 360 842 322 l 842 617 l 842 653 l 842 861 l 901 861 z "},"x":{"ha":668,"x_min":17,"x_max":650,"o":"m 650 949 l 461 474 l 650 0 l 396 0 l 333 154 l 272 0 l 17 0 l 206 474 l 17 949 l 272 949 l 333 793 l 396 949 l 650 949 l 650 949 m 397 474 l 563 889 l 435 889 l 333 633 l 232 889 l 104 889 l 269 474 l 104 60 l 232 60 l 333 314 l 435 60 l 563 60 l 397 474 l 397 474 m 519 860 l 365 474 l 519 89 l 456 89 l 333 394 l 211 89 l 147 89 l 301 474 l 147 860 l 211 860 l 333 554 l 456 860 l 519 860 l 519 860 z "},"y":{"ha":668,"x_min":39,"x_max":631,"o":"m 631 949 l 631 599 q 584 433 631 507 q 453 321 538 358 l 453 0 l 217 0 l 217 321 q 85 433 132 358 q 39 599 39 507 l 39 949 l 275 949 l 275 724 l 275 611 q 287 557 275 581 q 335 533 299 533 q 383 557 371 533 q 394 611 394 581 l 394 724 l 394 949 l 631 949 m 572 585 q 574 737 575 661 q 572 889 572 813 l 453 889 l 453 647 q 453 588 453 617 q 436 531 454 560 q 393 489 419 504 q 335 474 367 474 q 277 489 304 474 q 235 531 250 504 q 216 588 215 560 q 217 647 217 617 l 217 889 l 99 889 q 97 737 99 813 q 99 585 96 661 q 113 510 100 543 q 150 444 125 476 q 208 394 176 413 q 275 360 239 375 l 275 60 l 394 60 l 394 360 q 462 394 431 375 q 519 444 493 413 q 558 510 546 476 q 572 585 569 543 m 542 718 q 543 647 542 682 q 542 576 544 613 q 526 508 539 538 q 486 450 513 478 q 428 408 460 422 q 364 379 397 394 l 364 89 l 306 89 l 306 379 q 242 408 274 394 q 185 450 211 422 q 144 508 157 478 q 128 576 131 538 q 126 647 125 613 q 128 718 128 682 l 128 860 l 188 860 l 188 610 q 225 493 188 542 q 335 444 263 444 q 445 493 407 444 q 483 610 483 542 l 483 860 l 542 860 l 542 718 z "},"z":{"ha":706,"x_min":38,"x_max":658,"o":"m 658 236 l 658 0 l 38 0 l 38 236 l 38 236 l 369 711 l 38 711 l 38 947 l 658 947 l 658 711 l 328 236 l 658 236 l 658 236 m 600 58 l 600 178 l 214 178 l 600 729 l 600 889 l 97 889 l 97 769 l 483 769 l 97 217 l 97 58 l 600 58 l 600 58 m 569 147 l 569 89 l 126 89 l 126 207 l 540 800 l 126 800 l 126 858 l 569 858 l 569 739 l 157 147 l 569 147 l 569 147 z "},"B":{"ha":668,"x_min":43,"x_max":636,"o":"m 221 0 l 43 0 l 43 949 l 221 949 q 318 949 271 949 q 409 939 365 949 q 494 906 453 929 q 572 835 535 882 q 619 749 603 794 q 635 655 635 703 q 622 560 636 607 q 576 474 607 514 q 622 387 607 433 q 635 293 636 340 q 619 199 635 246 q 572 114 603 153 q 494 42 535 65 q 409 9 453 18 q 318 0 365 0 q 221 0 271 0 m 575 626 q 570 713 581 675 q 532 789 560 750 q 464 856 500 835 q 389 884 428 876 q 308 890 350 892 q 221 889 265 889 l 103 889 l 103 60 l 221 60 q 308 58 265 60 q 389 64 350 57 q 464 92 428 71 q 532 158 500 114 q 570 235 560 197 q 575 321 581 274 q 549 403 569 368 q 503 474 529 439 q 549 544 529 510 q 575 626 569 579 m 221 860 q 301 862 261 860 q 382 854 342 864 q 456 825 426 846 q 511 767 486 804 q 544 693 536 729 q 543 613 551 657 q 512 538 535 569 q 465 474 489 506 q 512 410 489 442 q 543 335 535 379 q 544 254 551 290 q 511 182 536 218 q 456 124 486 144 q 382 93 426 103 q 301 87 342 85 q 221 89 261 89 l 132 89 l 132 860 l 221 860 m 381 510 q 458 563 429 524 q 488 651 488 603 q 458 740 488 701 q 381 794 429 779 q 342 799 369 797 q 285 800 315 800 q 228 800 256 800 q 192 800 201 800 l 192 504 q 228 504 201 504 q 285 504 256 504 q 342 506 315 504 q 381 510 369 507 m 381 154 q 458 208 429 168 q 488 296 488 247 q 458 385 488 346 q 381 439 429 424 q 342 443 369 442 q 285 444 315 444 q 228 444 256 444 q 192 444 201 444 l 192 149 q 228 149 201 149 q 285 149 256 149 q 342 150 315 149 q 381 154 369 151 m 457 651 q 434 580 457 611 q 372 538 411 549 q 342 534 364 535 q 297 533 321 533 q 251 533 272 533 q 221 533 229 533 l 221 771 q 251 771 229 771 q 297 771 272 771 q 342 769 321 771 q 372 765 364 768 q 434 723 411 754 q 457 651 457 692 m 399 651 q 387 687 399 671 q 356 708 375 703 q 318 713 336 715 q 281 711 300 711 l 281 593 q 318 591 300 593 q 356 594 336 589 q 387 617 375 601 q 399 651 399 632 m 457 296 q 434 226 457 257 q 372 183 411 194 q 342 179 364 181 q 297 178 321 178 q 251 178 272 178 q 221 178 229 178 l 221 415 q 251 415 229 415 q 297 415 272 415 q 342 414 321 415 q 372 410 364 413 q 434 367 411 399 q 457 296 457 336 m 399 296 q 381 338 399 321 q 339 356 364 356 l 281 356 l 281 238 l 339 238 q 381 255 364 238 q 399 296 399 272 z "},"H":{"ha":668,"x_min":36,"x_max":628,"o":"m 628 356 l 628 0 l 392 0 l 392 356 l 274 356 l 274 0 l 36 0 l 36 356 l 36 592 l 36 947 l 274 947 l 274 592 l 392 592 l 392 947 l 628 947 l 628 592 l 628 356 l 628 356 m 569 58 l 569 889 l 450 889 l 450 533 l 214 533 l 214 889 l 96 889 l 96 58 l 214 58 l 214 414 l 450 414 l 450 58 l 569 58 l 569 58 m 540 858 l 540 89 l 481 89 l 481 444 l 185 444 l 185 89 l 125 89 l 125 858 l 185 858 l 185 503 l 481 503 l 481 858 l 540 858 l 540 858 z "},"P":{"ha":668,"x_min":49,"x_max":642,"o":"m 286 947 q 353 946 321 947 q 415 938 385 944 q 475 917 446 931 q 533 881 504 904 q 613 778 585 838 q 642 651 642 718 q 613 524 642 585 q 533 422 585 464 q 475 385 504 399 q 415 365 446 372 q 353 357 385 358 q 286 356 321 356 l 286 0 l 49 0 l 49 947 l 226 947 l 286 947 m 490 464 q 570 574 547 508 q 575 710 593 640 q 506 826 557 779 q 383 885 454 874 q 333 887 374 886 q 245 888 292 888 q 158 889 199 889 q 108 889 118 889 l 108 58 l 226 58 l 226 414 q 295 413 261 414 q 362 414 329 411 q 426 428 394 417 q 490 464 458 439 m 550 681 q 531 558 560 615 q 444 469 503 501 q 385 449 415 453 q 324 444 356 444 l 197 444 l 197 89 l 138 89 l 138 858 q 185 858 149 858 q 263 858 221 858 q 341 857 304 858 q 389 854 378 856 q 497 793 453 840 q 550 681 540 746 m 388 510 q 464 563 435 524 q 493 651 493 603 q 464 740 493 700 q 388 793 435 779 q 349 797 376 796 q 292 799 322 799 q 234 800 261 800 q 197 800 207 800 l 197 503 q 234 503 207 503 q 292 503 261 503 q 349 506 322 504 q 388 510 376 507 m 464 651 q 440 580 464 611 q 379 538 417 549 q 349 534 371 535 q 303 533 328 533 q 256 533 278 533 q 226 533 235 533 l 226 769 q 256 769 235 769 q 303 769 278 769 q 349 768 328 769 q 379 765 371 767 q 440 723 417 754 q 464 651 464 692 m 404 651 q 393 687 404 671 q 363 708 382 703 q 324 713 343 714 q 286 711 306 711 l 286 592 q 324 590 306 592 q 363 594 343 589 q 393 616 382 600 q 404 651 404 632 z "},"D":{"ha":668,"x_min":38,"x_max":629,"o":"m 629 651 l 629 296 q 606 181 629 235 q 543 86 583 126 q 449 23 503 46 q 333 0 394 0 l 274 0 l 215 0 l 38 0 l 38 947 l 215 947 l 274 947 l 333 947 q 449 924 394 947 q 543 861 503 901 q 606 767 583 821 q 629 651 629 713 m 569 296 l 569 651 q 551 743 569 700 q 500 818 532 786 q 425 869 468 850 q 333 888 382 888 l 274 888 l 215 888 l 96 888 l 96 58 l 274 58 l 333 58 q 425 77 382 58 q 500 128 468 96 q 551 203 532 160 q 569 296 569 247 m 540 651 l 540 296 q 524 215 540 253 q 479 149 507 178 q 414 105 451 121 q 333 89 376 89 l 303 89 l 274 89 l 126 89 l 126 858 l 215 858 l 274 858 l 333 858 q 414 842 376 858 q 479 797 451 825 q 524 732 507 769 q 540 651 540 694 m 481 296 l 481 651 q 438 756 481 714 q 333 799 396 799 l 185 799 l 185 710 l 185 356 l 185 147 l 333 147 q 391 159 364 147 q 438 191 418 171 q 469 238 457 211 q 481 296 481 265 m 451 651 l 451 296 q 417 213 451 247 q 333 178 382 178 l 215 178 l 215 356 l 215 710 l 215 769 l 333 769 q 417 735 382 769 q 451 651 451 700 m 393 293 q 394 369 394 332 q 393 443 393 406 l 393 594 q 394 630 393 613 q 390 665 396 647 l 390 668 l 390 669 q 389 671 389 669 l 389 672 q 388 675 388 674 q 386 676 388 676 l 386 679 q 385 681 385 681 q 383 683 385 682 l 382 685 l 381 686 q 379 688 379 688 q 376 692 378 690 q 374 693 375 693 q 372 696 374 694 q 369 699 372 696 q 366 701 367 700 q 363 703 365 701 q 360 703 361 703 q 358 704 360 704 q 356 706 357 706 q 354 707 356 706 q 351 708 353 707 q 347 708 350 708 q 310 712 328 714 q 274 710 293 710 l 274 592 l 274 236 q 311 235 293 236 q 349 239 329 233 q 380 259 368 244 q 393 293 392 274 z "}}}
